<?xml version="1.0" encoding="utf-8"?>
<!-- Generator: Adobe Illustrator 16.0.0, SVG Export Plug-In . SVG Version: 6.00 Build 0)  -->
<!DOCTYPE svg PUBLIC "-//W3C//DTD SVG 1.1//EN" "http://www.w3.org/Graphics/SVG/1.1/DTD/svg11.dtd">
<svg version="1.1" id="Layer_1" xmlns="http://www.w3.org/2000/svg" xmlns:xlink="http://www.w3.org/1999/xlink" x="0px" y="0px"
	 width="1000px" height="1000px" viewBox="0 0 1000 1000" enable-background="new 0 0 1000 1000" xml:space="preserve">
<g id="accessories">
	<g>
		<path fill-rule="evenodd" clip-rule="evenodd" fill="#A8A8A8" d="M947.19,395.346c-24.189-20.319-66.375-28.54-86.69-4.351
			c-0.416,0.478-0.538,1.191-0.895,1.669l-0.356-0.237L541.86,770.708c-64.974,77.454-193.103,81.861-270.529,16.919l-42.124-29.015
			c-77.426-65.003-92.379-189.528-27.408-266.923l230.579-275.028c56.751-67.625,137.127-76.204,192.597-29.611
			c58.448,49.034,68.159,120.056,6.436,196.617L458.655,589.044c-20.11,25.383-42.154,26.752-59.701,12.036
			c-16.056-13.527-15.313-31.996,4.41-58.45L561.88,353.758c0.653-0.716,1.488-1.013,2.085-1.669
			c17.935-21.389,12.215-55.767-9.177-73.701c-21.389-17.934-57.645-18.828-75.607,2.563c-1.253,1.488-3.098,2.144-4.172,3.754
			L296.504,497.468c-39.682,47.306-33.515,117.79,13.765,157.473l52.519,44.029c47.277,39.683,116.302,32.294,155.984-14.952
			l233.11-278.007c63.037-75.132,66.016-211.275-9.176-274.312L661.201,63.24C586.01,0.204,448.109,23.142,385.073,98.215
			L80.075,461.718c-86.628,103.256-56.154,281.403,47.099,368.035L230.876,916.8c103.253,86.631,292.334,72.748,378.965-30.506
			l343.187-408.905l-0.356-0.24c0.476-0.535,1.072-0.713,1.548-1.25C974.539,451.709,971.379,415.663,947.19,395.346z"/>
	</g>
</g>
</svg>
