<?xml version="1.0" encoding="utf-8"?>
<!-- Generator: Adobe Illustrator 16.0.0, SVG Export Plug-In . SVG Version: 6.00 Build 0)  -->
<!DOCTYPE svg PUBLIC "-//W3C//DTD SVG 1.1//EN" "http://www.w3.org/Graphics/SVG/1.1/DTD/svg11.dtd">
<svg version="1.1" id="Layer_1" xmlns="http://www.w3.org/2000/svg" xmlns:xlink="http://www.w3.org/1999/xlink" x="0px" y="0px"
	 width="1000px" height="1000px" viewBox="0 0 1000 1000" enable-background="new 0 0 1000 1000" xml:space="preserve">
<g id="add">
	<g>
		<path fill="#A8A8A8" d="M850.624,26.373H145.033c-64.943,0-117.598,52.655-117.598,117.598v705.591
			c0,64.942,52.655,117.598,117.598,117.598h705.591c64.945,0,117.601-52.655,117.601-117.598V143.971
			C968.225,79.028,915.569,26.373,850.624,26.373z M850.624,790.761c0,32.445-26.298,58.801-58.798,58.801H203.833
			c-32.472,0-58.8-26.355-58.8-58.801v-587.99c0-32.5,26.329-58.8,58.8-58.8h587.993c32.5,0,58.798,26.3,58.798,58.8V790.761z
			 M703.628,437.967H556.63V290.969c0-16.251-13.18-29.4-29.4-29.4h-58.8c-16.249,0-29.4,13.148-29.4,29.4v146.998H292.031
			c-16.249,0-29.397,13.149-29.397,29.4v58.798c0,16.251,13.148,29.399,29.397,29.399h146.998v146.999
			c0,16.251,13.151,29.399,29.4,29.399h58.8c16.221,0,29.4-13.148,29.4-29.399V555.564h146.998
			c16.191,0,29.397-13.148,29.397-29.399v-58.798C733.025,451.116,719.819,437.967,703.628,437.967z"/>
	</g>
</g>
</svg>
