<?xml version="1.0" encoding="utf-8"?>
<!-- Generator: Adobe Illustrator 16.0.0, SVG Export Plug-In . SVG Version: 6.00 Build 0)  -->
<!DOCTYPE svg PUBLIC "-//W3C//DTD SVG 1.1//EN" "http://www.w3.org/Graphics/SVG/1.1/DTD/svg11.dtd">
<svg version="1.1" id="Layer_1" xmlns="http://www.w3.org/2000/svg" xmlns:xlink="http://www.w3.org/1999/xlink" x="0px" y="0px"
	 width="1000px" height="1000px" viewBox="0 0 1000 1000" enable-background="new 0 0 1000 1000" xml:space="preserve">
<path fill-rule="evenodd" clip-rule="evenodd" fill="#020202" d="M499.993,897.492c-219.541,0-397.465-177.979-397.465-397.52
	c0-219.473,177.924-397.479,397.465-397.479c219.556,0,397.479,178.006,397.479,397.479
	C897.472,719.514,719.549,897.492,499.993,897.492L499.993,897.492z M499.993,188.059c-172.295,0-311.982,139.619-311.982,311.914
	s139.688,311.955,311.982,311.955c172.309,0,311.997-139.66,311.997-311.955S672.302,188.059,499.993,188.059L499.993,188.059z
	 M670.389,556.785H556.819v113.569c0,31.387-25.453,56.757-56.826,56.757s-56.743-25.37-56.743-56.757V556.785H329.681
	c-31.373,0-56.826-25.454-56.826-56.813c0-31.304,25.453-56.757,56.826-56.757H443.25V329.646c0-31.373,25.37-56.757,56.743-56.757
	s56.826,25.384,56.826,56.757v113.569h113.569c31.304,0,56.757,25.453,56.757,56.757
	C727.146,531.331,701.692,556.785,670.389,556.785L670.389,556.785z"/>
</svg>
