<?xml version="1.0" encoding="utf-8"?>
<!-- Generator: Adobe Illustrator 16.0.0, SVG Export Plug-In . SVG Version: 6.00 Build 0)  -->
<!DOCTYPE svg PUBLIC "-//W3C//DTD SVG 1.1//EN" "http://www.w3.org/Graphics/SVG/1.1/DTD/svg11.dtd">
<svg version="1.1" id="Layer_1" xmlns="http://www.w3.org/2000/svg" xmlns:xlink="http://www.w3.org/1999/xlink" x="0px" y="0px"
	 width="1000px" height="1000px" viewBox="0 0 1000 1000" enable-background="new 0 0 1000 1000" xml:space="preserve">
<g id="app">
	<g>
		<path fill="#A8A8A8" d="M854.669,438.711h-59.713c-65.951,0-119.425,53.474-119.425,119.426v298.563
			c0,65.952,53.474,119.426,119.425,119.426h59.713c65.952,0,119.425-53.474,119.425-119.426V558.137
			C974.094,492.185,920.621,438.711,854.669,438.711z M854.669,856.699h-59.713V558.137h59.713V856.699z M138.117,498.424h179.138
			c65.952,0,119.426-53.474,119.426-119.425V140.148c0-65.952-53.474-119.425-119.426-119.425H138.117
			c-65.952,0-119.425,53.474-119.425,119.425v238.851C18.692,444.95,72.166,498.424,138.117,498.424z M138.117,140.148h179.138
			v238.851H138.117V140.148z M496.393,558.137H138.117c-65.952,0-119.425,53.474-119.425,119.425v179.138
			c0,65.952,53.474,119.426,119.425,119.426h358.276c65.952,0,119.425-53.474,119.425-119.426V677.562
			C615.818,611.61,562.345,558.137,496.393,558.137z M496.393,856.699H138.117V677.562h358.276V856.699z M854.669,20.723H615.818
			c-65.952,0-119.425,53.474-119.425,119.425v119.425c0,65.952,53.473,119.425,119.425,119.425h238.851
			c65.952,0,119.425-53.474,119.425-119.425V140.148C974.094,74.196,920.621,20.723,854.669,20.723z M854.669,259.573H615.818
			V140.148h238.851V259.573z"/>
	</g>
</g>
</svg>
