<?xml version="1.0" encoding="utf-8"?>
<!-- Generator: Adobe Illustrator 16.0.0, SVG Export Plug-In . SVG Version: 6.00 Build 0)  -->
<!DOCTYPE svg PUBLIC "-//W3C//DTD SVG 1.1//EN" "http://www.w3.org/Graphics/SVG/1.1/DTD/svg11.dtd">
<svg version="1.1" id="Layer_1" xmlns="http://www.w3.org/2000/svg" xmlns:xlink="http://www.w3.org/1999/xlink" x="0px" y="0px"
	 width="1000px" height="1000px" viewBox="0 0 1000 1000" enable-background="new 0 0 1000 1000" xml:space="preserve">
<g id="_x40_">
	<g>
		<path fill="#A8A8A8" d="M497.833,30.737c-257.412,0-466.095,208.683-466.095,466.067c0,257.439,208.683,466.065,466.095,466.065
			c45.771,0,90.034-6.714,131.792-19.059c-0.684-1.08-1.023-1.99-1.594-3.073c20.368-7.451,35.162-26.625,35.162-49.609
			c0-29.413-23.84-53.253-53.254-53.253c-4.778,0-9.045,1.536-13.427,2.674c-0.112-0.112-0.112-0.228-0.228-0.396
			c-1.479,0.511-3.185,0.91-4.663,1.421c-1.025,0.342-2.05,0.457-3.018,0.911c-29.526,9.444-60.249,6.314-91.994,6.314
			c-193.066,0-347.73-160.153-347.73-353.19c0-193.038,154.664-349.55,347.73-349.55c193.036,0,351.369,156.512,351.369,349.55
			c0,58.428,6.145,112.761-25.032,138.591c-25.318,13.313-93.874,15.133-91.824-47.563c2.047-62.697,1.592-229.791,1.592-274.907
			c0-36.412-25.146-74.815-45.174-74.815c-16.953,0-40.506,31.975-47.562,61.104c-36.07-32.713-91.996-66.394-143.369-66.394
			c-143.257,0-265.804,113.444-265.804,263.983c0,166.922,109.803,271.264,262.163,269.443
			c56.808-0.681,117.313-27.593,155.771-67.646c23.384,40.908,64.973,56.269,95.466,54.902c40.11-1.821,9.616,2.618,62.015,0
			c36.411-1.821,65.142-10.298,97.854-43.694c54.163-55.299,59.795-128.861,59.795-211.811
			C963.87,239.42,755.244,30.737,497.833,30.737z M507.533,643.076c-93.19,0.34-154.749-56.098-154.749-145.646
			c0-80.447,65.227-148.093,145.646-145.646c60.421,1.82,121.979,65.199,121.979,145.646
			C620.409,577.876,571.596,642.848,507.533,643.076z"/>
	</g>
</g>
</svg>
