<?xml version="1.0" encoding="utf-8"?>
<!-- Generator: Adobe Illustrator 16.0.0, SVG Export Plug-In . SVG Version: 6.00 Build 0)  -->
<!DOCTYPE svg PUBLIC "-//W3C//DTD SVG 1.1//EN" "http://www.w3.org/Graphics/SVG/1.1/DTD/svg11.dtd">
<svg version="1.1" id="Layer_1" xmlns="http://www.w3.org/2000/svg" xmlns:xlink="http://www.w3.org/1999/xlink" x="0px" y="0px"
	 width="1000px" height="1000px" viewBox="0 0 1000 1000" enable-background="new 0 0 1000 1000" xml:space="preserve">
<path fill="#020202" d="M562.521,552.04c-11.386,26.043-27.049,47.022-46.99,62.969c-22.708,18.651-47.431,28.024-74.228,28.024
	c-24.974,0-44.601-6.794-58.816-20.413c-12.519-16.418-18.809-36.831-18.809-61.207c0-51.613,13.336-95.333,40.133-131
	c27.867-36.926,61.145-55.325,99.768-55.325c23.904,0,42.776,6.196,56.363,18.746c15.35,18.085,22.646,41.643,21.828,70.579
	C580.826,493.287,574.473,522.507,562.521,552.04L562.521,552.04L562.521,552.04z M594.1,697.037
	c15.915,11.606,37.868,17.425,65.735,17.425c67.12,0,125.685-28.622,175.758-85.866c49.568-58.974,74.291-129.898,74.291-212.714
	c-0.629-44.19-9.248-84.45-26.043-120.778c-16.795-36.265-42.838-68.943-78.129-97.817
	c-70.013-58.407-159.023-87.596-267.095-87.596c-128.579,0-235.518,39.977-320.88,119.961
	c-85.866,79.386-128.83,179.186-128.83,299.397c0,107.757,38.058,195.132,114.299,261.969
	c25.036,22.174,53.092,40.762,84.104,55.766c30.949,15.002,64.541,26.199,100.648,33.592c36.17,7.391,75.612,11.039,118.199,11.039
	c56.929-1.068,109.832-9.625,158.772-25.477c72.781-28.369,137.637-71.178,194.566-128.483h-87.942
	c-34.66,26.104-76.241,47.116-124.489,62.968c-45.543,14.752-93.352,22.143-143.487,22.143c-96.119,0-173.995-26.389-233.756-79.135
	c-59.696-52.211-89.577-121.376-89.577-207.587c0-33.435,3.46-65.202,10.632-95.239c7.107-30.1,18.242-58.376,33.214-85.11
	c15.097-26.641,33.465-50.765,55.104-72.341c34.095-34.001,71.964-59.226,113.481-75.644c41.58-16.419,88.193-24.723,139.964-24.723
	c84.23,1.164,153.049,23.559,206.581,67.277c52.841,46.456,79.324,104.863,79.324,175.191
	c-1.195,54.444-15.979,103.542-44.412,147.198c-30.697,45.354-62.527,68.001-95.553,68.001c-8.555-1.069-14.783-3.397-18.746-6.794
	c-4.592-3.994-6.794-10.442-6.794-19.563v-16.104c0.504-2.328,0.944-3.995,1.195-5.158c0.252-1.164,0.44-2.233,0.44-3.397
	l72.593-261.969h-85.362l-22.269,40.794c-7.359-27.206-21.514-46.204-42.587-56.992c-18.18-9.624-42.398-14.405-72.529-14.405
	c-32.459,0-62.276,6.794-89.703,20.382c-27.301,13.618-52.589,32.616-75.864,56.991c-46.172,56.175-69.133,118.23-69.133,186.263
	c1.069,49.35,14.531,87.093,40.071,113.136c27.301,25.57,65.484,38.341,114.425,38.341c30.068,0,57.747-5.158,82.783-15.35
	c24.407-11.857,44.852-28.622,61.396-50.198C569.629,668.572,578.185,685.431,594.1,697.037L594.1,697.037z"/>
</svg>
