<?xml version="1.0" encoding="utf-8"?>
<!-- Generator: Adobe Illustrator 16.0.0, SVG Export Plug-In . SVG Version: 6.00 Build 0)  -->
<!DOCTYPE svg PUBLIC "-//W3C//DTD SVG 1.1//EN" "http://www.w3.org/Graphics/SVG/1.1/DTD/svg11.dtd">
<svg version="1.1" id="Layer_1" xmlns="http://www.w3.org/2000/svg" xmlns:xlink="http://www.w3.org/1999/xlink" x="0px" y="0px"
	 width="1000px" height="1000px" viewBox="0 0 1000 1000" enable-background="new 0 0 1000 1000" xml:space="preserve">
<g id="video">
	<g>
		<path fill-rule="evenodd" clip-rule="evenodd" fill="#A8A8A8" d="M343.749,264.869c0-70.316-57.014-127.33-127.33-127.33
			S89.09,194.553,89.09,264.869c0,70.318,57.014,127.331,127.33,127.331S343.749,335.187,343.749,264.869z M789.403,547.383V392.2
			H598.41H216.419H25.424v445.652h763.979V679.188l189.005,190.497l1.99-513.298L789.403,547.383z M725.741,264.869
			c0-70.316-57.014-127.33-127.331-127.33c-70.318,0-127.33,57.013-127.33,127.33c0,70.318,57.011,127.331,127.33,127.331
			C668.728,392.2,725.741,335.187,725.741,264.869z"/>
	</g>
</g>
</svg>
