<?xml version="1.0" encoding="utf-8"?>
<!-- Generator: Adobe Illustrator 16.0.0, SVG Export Plug-In . SVG Version: 6.00 Build 0)  -->
<!DOCTYPE svg PUBLIC "-//W3C//DTD SVG 1.1//EN" "http://www.w3.org/Graphics/SVG/1.1/DTD/svg11.dtd">
<svg version="1.1" id="Layer_1" xmlns="http://www.w3.org/2000/svg" xmlns:xlink="http://www.w3.org/1999/xlink" x="0px" y="0px"
	 width="1000px" height="1000px" viewBox="0 0 1000 1000" enable-background="new 0 0 1000 1000" xml:space="preserve">
<path fill-rule="evenodd" clip-rule="evenodd" fill="#020202" d="M824.291,853.787H175.708c-48.828,0-88.443-39.558-88.443-88.472
	V323.143c0-48.828,39.615-88.458,88.443-88.458h58.962c0-48.828,39.615-88.472,88.443-88.472h235.849
	c48.828,0,88.501,39.644,88.501,88.472h58.904v-29.467c0-16.324,13.186-29.467,29.481-29.467h29.538
	c16.237,0,29.424,13.143,29.424,29.467v29.467h29.48c48.828,0,88.443,39.63,88.443,88.458v442.173
	C912.734,814.229,873.119,853.787,824.291,853.787L824.291,853.787z M824.291,352.608c0-16.252-13.243-29.466-29.48-29.466H588.442
	l-29.48-59.006c0-16.237-13.187-29.452-29.481-29.452H352.594c-16.295,0-29.48,13.215-29.48,29.452l-29.481,59.006h-88.443
	c-16.237,0-29.48,13.214-29.48,29.466v383.255c0,16.323,13.243,29.452,29.48,29.452h589.622c16.237,0,29.48-13.129,29.48-29.452
	V352.608L824.291,352.608z M735.849,706.382c-16.296,0-29.481-13.186-29.481-29.452V411.614c0-16.339,13.186-29.539,29.481-29.539
	c16.295,0,29.538,13.2,29.538,29.539V676.93C765.387,693.196,752.144,706.382,735.849,706.382L735.849,706.382z M441.037,735.863
	c-113.951,0-206.367-92.417-206.367-206.396c0-113.908,92.416-206.324,206.367-206.324c114.009,0,206.426,92.416,206.426,206.324
	C647.463,643.446,555.046,735.863,441.037,735.863L441.037,735.863z M441.037,411.614c-65.123,0-117.924,52.772-117.924,117.853
	c0,65.151,52.801,117.924,117.924,117.924c65.181,0,117.925-52.772,117.925-117.924
	C558.962,464.387,506.218,411.614,441.037,411.614L441.037,411.614z"/>
</svg>
