<?xml version="1.0" encoding="utf-8"?>
<!-- Generator: Adobe Illustrator 16.0.0, SVG Export Plug-In . SVG Version: 6.00 Build 0)  -->
<!DOCTYPE svg PUBLIC "-//W3C//DTD SVG 1.1//EN" "http://www.w3.org/Graphics/SVG/1.1/DTD/svg11.dtd">
<svg version="1.1" id="Layer_1" xmlns="http://www.w3.org/2000/svg" xmlns:xlink="http://www.w3.org/1999/xlink" x="0px" y="0px"
	 width="1000px" height="1000px" viewBox="0 0 1000 1000" enable-background="new 0 0 1000 1000" xml:space="preserve">
<path fill-rule="evenodd" clip-rule="evenodd" fill="#020202" d="M864.997,178.802L189.714,854.161
	c-15.074,15.099-39.625,15.099-54.749,0c-15.124-15.149-15.124-39.7,0-54.774l675.334-675.283c15.073-15.174,39.625-15.174,54.698,0
	C880.171,139.177,880.171,163.729,864.997,178.802L864.997,178.802z M512.912,348.417L398.071,463.309
	c-0.605-4.336-1.312-8.521-1.312-12.906c0-57.042,46.229-103.246,103.246-103.246C504.392,347.156,508.627,347.888,512.912,348.417
	L512.912,348.417z M500.006,243.558c-114.236,0-206.845,92.634-206.845,206.845c0,34.18,8.368,66.293,23.089,94.676l-56.109,56.186
	c-27.677-43.759-44.062-95.281-44.062-150.861c0-156.835,127.092-283.952,283.927-283.952c55.605,0,107.229,16.233,151.038,43.81
	l-56.362,56.387C566.299,251.951,534.187,243.558,500.006,243.558L500.006,243.558z M496.478,657.046
	c1.21,0,2.318-0.151,3.528-0.151s2.319,0.151,3.529,0.151c112.572-1.865,203.315-93.617,203.315-206.644
	c0-12.628-1.36-24.93-3.479-36.902l62.361-62.361c11.595,30.929,18.25,64.303,18.25,99.264
	c0,104.708-56.917,196.006-141.358,245.185c49.808,29.794,86.962,74.863,104.254,127.671c6.957,6.982,11.242,16.611,11.242,27.173
	c0,21.425-17.292,38.768-38.717,38.768c-21.426,0-38.667-17.343-38.667-38.768c0-4.588,1.108-8.772,2.57-12.881h-13.106
	c-24.854-60.117-91.551-103.246-170.195-103.246S354.665,777.433,329.812,837.55h-13.107c1.462,4.108,2.621,8.293,2.621,12.881
	c0,21.425-17.393,38.768-38.717,38.768c-14.368,0-26.417-8.243-33.121-19.813l215.818-215.793
	C474.145,655.508,485.185,656.844,496.478,657.046L496.478,657.046z"/>
</svg>
