<?xml version="1.0" encoding="utf-8"?>
<!-- Generator: Adobe Illustrator 16.0.0, SVG Export Plug-In . SVG Version: 6.00 Build 0)  -->
<!DOCTYPE svg PUBLIC "-//W3C//DTD SVG 1.1//EN" "http://www.w3.org/Graphics/SVG/1.1/DTD/svg11.dtd">
<svg version="1.1" id="Layer_1" xmlns="http://www.w3.org/2000/svg" xmlns:xlink="http://www.w3.org/1999/xlink" x="0px" y="0px"
	 width="1000px" height="1000px" viewBox="0 0 1000 1000" enable-background="new 0 0 1000 1000" xml:space="preserve">
<path fill-rule="evenodd" clip-rule="evenodd" fill="#020202" d="M667.705,697.364c58.593,35.048,102.3,88.125,122.729,150.157
	c8.154,8.303,13.225,19.57,13.225,32.084c0,25.086-20.43,45.486-45.604,45.486c-25.115,0-45.516-20.4-45.516-45.486
	c0-5.396,1.334-10.438,3.054-15.271h-16.042C670.226,793.792,592.389,742.88,499.963,742.88
	c-92.366,0-170.262,50.912-199.514,121.455h-16.102c1.721,4.833,3.129,9.874,3.129,15.271c0,25.086-20.416,45.486-45.605,45.486
	c-25.101,0-45.516-20.4-45.516-45.486c0-12.514,5.085-23.781,13.21-32.084c20.416-62.032,64.063-115.109,122.641-150.157
	c-99.334-57.881-166.199-165.162-166.199-288.441c0-184.495,149.535-334.03,333.956-334.03
	c184.495,0,334.031,149.535,334.031,334.03C833.994,532.202,767.039,639.483,667.705,697.364L667.705,697.364z M499.963,165.613
	c-134.368,0-243.31,108.941-243.31,243.31c0,132.945,106.762,240.879,239.247,243.073c1.32,0,2.743-0.148,4.063-0.148
	c1.408,0,2.743,0.148,4.151,0.148c132.485-2.194,239.145-110.128,239.145-243.073C743.259,274.555,634.316,165.613,499.963,165.613
	L499.963,165.613z M499.963,530.393c-67.028,0-121.455-54.44-121.455-121.47c0-67.103,54.427-121.454,121.455-121.454
	c67.103,0,121.455,54.352,121.455,121.454C621.418,475.952,567.065,530.393,499.963,530.393L499.963,530.393z M454.447,317.817
	c-25.189,0-45.516,20.4-45.516,45.59c0,25.101,20.326,45.516,45.516,45.516s45.516-20.415,45.516-45.516
	C499.963,338.218,479.637,317.817,454.447,317.817L454.447,317.817z"/>
</svg>
