<?xml version="1.0" encoding="utf-8"?>
<!-- Generator: Adobe Illustrator 16.0.0, SVG Export Plug-In . SVG Version: 6.00 Build 0)  -->
<!DOCTYPE svg PUBLIC "-//W3C//DTD SVG 1.1//EN" "http://www.w3.org/Graphics/SVG/1.1/DTD/svg11.dtd">
<svg version="1.1" id="Layer_1" xmlns="http://www.w3.org/2000/svg" xmlns:xlink="http://www.w3.org/1999/xlink" x="0px" y="0px"
	 width="1000px" height="1000px" viewBox="0 0 1000 1000" enable-background="new 0 0 1000 1000" xml:space="preserve">
<path fill-rule="evenodd" clip-rule="evenodd" fill="#020202" d="M844.103,844.466H155.568c-27.276,0-49.304-22.055-49.304-49.276
	V303.447c0-27.086,22.027-49.153,49.304-49.153h27.004l13.162-58.292c5.085-22.53,31.002-40.152,58.169-40.152h295.141
	c27.086,0,53.083,17.622,58.114,40.152l13.217,58.292h76.117c0-27.235,22-49.168,49.275-49.168h49.168
	c27.086,0,49.167,21.933,49.167,49.168c27.086,0,49.113,22.067,49.113,49.153v491.742
	C893.216,822.411,871.188,844.466,844.103,844.466L844.103,844.466z M794.936,352.628H534.604l-34.809-98.334H303.017
	l-34.836,98.334h-63.445V746.05h590.2V352.628L794.936,352.628z M426.044,352.628c94.989,0,172.167,77.138,172.167,172.113
	c0,95.153-77.178,172.141-172.167,172.141c-95.018,0-172.141-76.987-172.141-172.141
	C253.903,429.766,331.026,352.628,426.044,352.628L426.044,352.628z M426.044,598.466c40.764,0,73.751-32.96,73.751-73.725
	c0-40.777-32.987-73.71-73.751-73.71c-40.792,0-73.725,32.933-73.725,73.71C352.319,565.506,385.252,598.466,426.044,598.466
	L426.044,598.466z M721.075,401.755c13.625,0,24.692,11,24.692,24.665v245.933c0,13.543-11.067,24.529-24.692,24.529
	c-13.543,0-24.583-10.986-24.583-24.529V426.42C696.492,412.755,707.532,401.755,721.075,401.755L721.075,401.755z"/>
</svg>
