<?xml version="1.0" encoding="utf-8"?>
<!-- Generator: Adobe Illustrator 16.0.0, SVG Export Plug-In . SVG Version: 6.00 Build 0)  -->
<!DOCTYPE svg PUBLIC "-//W3C//DTD SVG 1.1//EN" "http://www.w3.org/Graphics/SVG/1.1/DTD/svg11.dtd">
<svg version="1.1" id="Layer_1" xmlns="http://www.w3.org/2000/svg" xmlns:xlink="http://www.w3.org/1999/xlink" x="0px" y="0px"
	 width="1000px" height="1000px" viewBox="0 0 1000 1000" enable-background="new 0 0 1000 1000" xml:space="preserve">
<path fill-rule="evenodd" clip-rule="evenodd" fill="#020202" d="M822.845,749.971H597.851l-97.822,117.398l-97.894-117.398H177.155
	c-48.61,0-88.063-39.381-88.063-88.077V221.708c0-48.61,39.452-88.077,88.063-88.077h645.689c48.61,0,88.049,39.467,88.049,88.077
	v440.186C910.894,710.59,871.455,749.971,822.845,749.971L822.845,749.971z M822.845,251.029c0-16.165-13.185-29.321-29.35-29.321
	H206.49c-16.18,0-29.335,13.156-29.335,29.321v381.544c0,16.165,13.155,29.32,29.335,29.32h220.136l73.402,88.077l73.346-88.077
	h220.121c16.165,0,29.35-13.155,29.35-29.32V251.029L822.845,251.029z M690.771,573.902H309.229
	c-24.349,0-43.996-19.719-43.996-44.081c0-24.248,19.647-43.996,43.996-43.996h381.543c24.334,0,43.996,19.748,43.996,43.996
	C734.768,554.184,715.105,573.902,690.771,573.902L690.771,573.902z M690.771,397.776H309.229
	c-24.349,0-43.996-19.748-43.996-43.995c0-24.362,19.647-44.082,43.996-44.082h381.543c24.334,0,43.996,19.72,43.996,44.082
	C734.768,378.028,715.105,397.776,690.771,397.776L690.771,397.776z"/>
</svg>
