<?xml version="1.0" encoding="utf-8"?>
<!-- Generator: Adobe Illustrator 16.0.0, SVG Export Plug-In . SVG Version: 6.00 Build 0)  -->
<!DOCTYPE svg PUBLIC "-//W3C//DTD SVG 1.1//EN" "http://www.w3.org/Graphics/SVG/1.1/DTD/svg11.dtd">
<svg version="1.1" id="Layer_1" xmlns="http://www.w3.org/2000/svg" xmlns:xlink="http://www.w3.org/1999/xlink" x="0px" y="0px"
	 width="1000px" height="1000px" viewBox="0 0 1000 1000" enable-background="new 0 0 1000 1000" xml:space="preserve">
<path fill-rule="evenodd" clip-rule="evenodd" fill="#020202" d="M592.771,499.966L871.08,778.274
	c25.691,25.691,25.691,67.176,0,92.867c-25.594,25.594-67.078,25.594-92.77,0L499.984,592.735L221.676,871.142
	c-25.596,25.594-67.159,25.594-92.771,0c-25.675-25.691-25.675-67.176,0-92.867l278.326-278.309L128.905,221.655
	c-25.675-25.627-25.675-67.175,0-92.771c25.611-25.627,67.175-25.627,92.771,0l278.309,278.311l278.326-278.311
	c25.691-25.627,67.176-25.627,92.77,0c25.691,25.596,25.691,67.144,0,92.771L592.771,499.966L592.771,499.966z"/>
</svg>
