<?xml version="1.0" encoding="utf-8"?>
<!-- Generator: Adobe Illustrator 16.0.0, SVG Export Plug-In . SVG Version: 6.00 Build 0)  -->
<!DOCTYPE svg PUBLIC "-//W3C//DTD SVG 1.1//EN" "http://www.w3.org/Graphics/SVG/1.1/DTD/svg11.dtd">
<svg version="1.1" id="Layer_1" xmlns="http://www.w3.org/2000/svg" xmlns:xlink="http://www.w3.org/1999/xlink" x="0px" y="0px"
	 width="1000px" height="1000px" viewBox="0 0 1000 1000" enable-background="new 0 0 1000 1000" xml:space="preserve">
<path fill-rule="evenodd" clip-rule="evenodd" fill="#020202" d="M856.377,454.912c-32.34,0-64.744-32.403-64.744-32.403
	s-64.744,0-32.404,356.502c0,0-32.34,64.744-64.807,64.744c-32.403,0-194.422,0-194.422,0s-162.018,0-194.358,0
	c-32.467,0-64.87-64.744-64.87-64.744c32.403-356.502-32.403-356.502-32.403-356.502s-32.341,32.403-64.808,32.403
	c-32.403,0-64.808-129.63-64.808-162.019c0-32.388,129.615-97.227,194.422-129.614c28.037-14.019,32.467,0,64.808,0
	c-0.127,11.771,3.417,22.452,8.924,32.388h-8.924L500,390.137l162.019-194.47h-8.924c5.38-9.936,9.05-20.616,8.924-32.388
	c32.403,0,36.708-14.019,64.87,0c64.744,32.388,194.359,97.227,194.359,129.614C921.248,325.282,888.844,454.912,856.377,454.912
	L856.377,454.912z M402.789,163.279h194.422L500,260.506L402.789,163.279L402.789,163.279z"/>
</svg>
