<?xml version="1.0" encoding="utf-8"?>
<!-- Generator: Adobe Illustrator 16.0.0, SVG Export Plug-In . SVG Version: 6.00 Build 0)  -->
<!DOCTYPE svg PUBLIC "-//W3C//DTD SVG 1.1//EN" "http://www.w3.org/Graphics/SVG/1.1/DTD/svg11.dtd">
<svg version="1.1" id="Layer_1" xmlns="http://www.w3.org/2000/svg" xmlns:xlink="http://www.w3.org/1999/xlink" x="0px" y="0px"
	 width="1000px" height="1000px" viewBox="0 0 1000 1000" enable-background="new 0 0 1000 1000" xml:space="preserve">
<path fill-rule="evenodd" clip-rule="evenodd" fill="#020202" d="M527.731,306.389v180.232H707.99
	c22.966,0,41.599,18.632,41.599,41.625c0,22.938-18.633,41.571-41.599,41.571H486.134l0,0c-17.225,0-32.012-10.481-38.349-25.431
	c0-0.054,0-0.189-0.054-0.271c-2.005-4.929-3.25-10.291-3.25-15.87V306.389c0-22.992,18.687-41.652,41.652-41.652
	S527.731,283.396,527.731,306.389L527.731,306.389z M500,874.844c-64.077,0-124.199-15.87-177.442-43.358l-44.415,71.145
	L167.214,680.746h249.59l-49.886,79.729C407.162,780.11,452.227,791.35,500,791.35c168.288,0,304.729-136.44,304.729-304.729
	c0-168.316-136.44-304.729-304.729-304.729c-168.289,0-304.729,136.412-304.729,304.729c0,18.984,2.004,37.481,5.308,55.491h-8.449
	c1.57,4.36,2.816,8.937,2.816,13.866c0,22.911-18.578,41.57-41.599,41.57c-23.02,0-41.598-18.659-41.598-41.57
	c0-6.229,1.57-11.998,4.008-17.306c-2.329-17.062-4.008-34.341-4.008-52.052c0-214.437,173.813-388.25,388.25-388.25
	s388.249,173.813,388.249,388.25S714.437,874.844,500,874.844L500,874.844z"/>
</svg>
