<?xml version="1.0" encoding="utf-8"?>
<!-- Generator: Adobe Illustrator 16.0.0, SVG Export Plug-In . SVG Version: 6.00 Build 0)  -->
<!DOCTYPE svg PUBLIC "-//W3C//DTD SVG 1.1//EN" "http://www.w3.org/Graphics/SVG/1.1/DTD/svg11.dtd">
<svg version="1.1" id="Layer_1" xmlns="http://www.w3.org/2000/svg" xmlns:xlink="http://www.w3.org/1999/xlink" x="0px" y="0px"
	 width="1000px" height="1000px" viewBox="0 0 1000 1000" enable-background="new 0 0 1000 1000" xml:space="preserve">
<g id="decorate">
	<g>
		<path fill-rule="evenodd" clip-rule="evenodd" fill="#A8A8A8" d="M783.069,326.494l39.757-271.562L562.604,142.16L316.62,20.38
			l0.701,274.428l-189.949,196.32l201.758,63.491L54.644,881.722c-21.25,25.313-17.948,63.082,7.397,84.363
			c25.313,21.221,63.082,17.947,84.334-7.368L420.1,632.492l96.493,184.101l159.255-223.505l270.566-46.07L783.069,326.494z
			 M626.212,491.069l-79.627,111.725L482.89,481.246L351.99,440.09l95.907-98.162l-1.285-137.214l122.948,60.861l130.141-43.612
			l-19.88,135.81l81.675,110.263L626.212,491.069z"/>
	</g>
</g>
</svg>
