<?xml version="1.0" encoding="utf-8"?>
<!-- Generator: Adobe Illustrator 16.0.0, SVG Export Plug-In . SVG Version: 6.00 Build 0)  -->
<!DOCTYPE svg PUBLIC "-//W3C//DTD SVG 1.1//EN" "http://www.w3.org/Graphics/SVG/1.1/DTD/svg11.dtd">
<svg version="1.1" id="Layer_1" xmlns="http://www.w3.org/2000/svg" xmlns:xlink="http://www.w3.org/1999/xlink" x="0px" y="0px"
	 width="1000px" height="1000px" viewBox="0 0 1000 1000" enable-background="new 0 0 1000 1000" xml:space="preserve">
<g id="delete">
	<g>
		<path fill-rule="evenodd" clip-rule="evenodd" fill="#A8A8A8" d="M866.683,161.788h-82.517c-4.417-0.489-8.741-1.325-13.296-1.325
			H605v-10.972c0-59.156-47.955-107.11-107.111-107.11s-107.107,47.954-107.107,107.11v10.972h-167.37
			c-4.568,0-8.891,0.836-13.319,1.325h-81.297c-59.156,0-107.11,47.952-107.11,107.107c0,50.742,35.365,92.978,82.715,104.065
			v453.96c0,65.712,53.274,119.009,119.011,119.009H770.87c65.711,0,119.011-53.297,119.011-119.009V373.333
			c47.953-10.621,83.889-53.254,83.889-104.437C973.77,209.74,925.815,161.788,866.683,161.788z M343.524,767.857
			c0,32.866-26.637,59.505-59.503,59.505c-32.868,0-59.507-26.639-59.507-59.505V363.221c0-32.843,26.639-59.503,59.507-59.503
			c32.866,0,59.503,26.66,59.503,59.503V767.857z M557.743,767.857c0,32.866-26.66,59.505-59.505,59.505
			c-32.868,0-59.505-26.639-59.505-59.505V363.221c0-32.843,26.638-59.503,59.505-59.503c32.845,0,59.505,26.66,59.505,59.503
			V767.857z M771.963,767.857c0,32.866-26.638,59.505-59.506,59.505s-59.505-26.639-59.505-59.505V363.221
			c0-32.843,26.637-59.503,59.505-59.503s59.506,26.66,59.506,59.503V767.857z"/>
	</g>
</g>
</svg>
