<?xml version="1.0" encoding="utf-8"?>
<!-- Generator: Adobe Illustrator 16.0.0, SVG Export Plug-In . SVG Version: 6.00 Build 0)  -->
<!DOCTYPE svg PUBLIC "-//W3C//DTD SVG 1.1//EN" "http://www.w3.org/Graphics/SVG/1.1/DTD/svg11.dtd">
<svg version="1.1" id="Layer_1" xmlns="http://www.w3.org/2000/svg" xmlns:xlink="http://www.w3.org/1999/xlink" x="0px" y="0px"
	 width="1000px" height="1000px" viewBox="0 0 1000 1000" enable-background="new 0 0 1000 1000" xml:space="preserve">
<g id="diary">
	<g>
		<path fill="#A8A8A8" d="M615.597,558.921v-57.639c0-63.661,51.614-115.275,115.275-115.275h115.274V213.094
			c0-63.659-51.614-115.275-115.274-115.275H154.494c-63.658,0-115.275,51.617-115.275,115.275v576.377
			c0,63.661,51.617,115.275,115.275,115.275h576.378c63.66,0,115.274-51.614,115.274-115.275V674.196H730.872
			C667.211,674.196,615.597,622.581,615.597,558.921z M269.77,791.271H154.494V675.996H269.77V791.271z M269.77,560.721H154.494
			V445.445H269.77V560.721z M269.77,330.17H154.494V214.896H269.77V330.17z M846.146,443.646H730.872
			c-31.859,0-57.639,25.778-57.639,57.637v57.639c0,31.802,25.779,57.637,57.639,57.637h115.274
			c31.859,0,57.637-25.835,57.637-57.637v-57.639C903.783,469.424,878.006,443.646,846.146,443.646z"/>
	</g>
</g>
</svg>
