<?xml version="1.0" encoding="utf-8"?>
<!-- Generator: Adobe Illustrator 16.0.0, SVG Export Plug-In . SVG Version: 6.00 Build 0)  -->
<!DOCTYPE svg PUBLIC "-//W3C//DTD SVG 1.1//EN" "http://www.w3.org/Graphics/SVG/1.1/DTD/svg11.dtd">
<svg version="1.1" id="Layer_1" xmlns="http://www.w3.org/2000/svg" xmlns:xlink="http://www.w3.org/1999/xlink" x="0px" y="0px"
	 width="1006px" height="1004px" viewBox="0 0 1006 1004" enable-background="new 0 0 1006 1004" xml:space="preserve">
<g>
	<path d="M907,601c7,5,14,10,22,13c10-36,15-74,15-114c0-23-2-44-5-67c-7,5-12,13-15,18c-4,7-3,10-10,17c-7,5-11,6-18,13
		c-4,7-4,11-7,18c-3,3-6,5-9,9c-4,9,1,22,1,33c-1,12-5,21,2,32S899,593,907,601L907,601L907,601z M902,371c-3,4,0,10,0,15s-2,9,1,14
		l10,11c5,5,9,7,13,7c1,0,8-1,9-2c1,0,1,0,1-1c-4-22-10-43-18-63l-2,2l-7,6c-3,3-1,5-4,8L902,371L902,371z M821,196h1
		C759,131,680,86,588,67c-11,3-20,8-29,13c7,1,11,2,14,2c-5,21-42,7-55,7c11-4,28-10,37-17c5-4,0-6,7-10c-20-3-40-4-60-4
		c-32,0-63,3-92,10h1c-7,4-19,16-12,24c8,7,16-4,24-8c16-8,39-9,58-13c-3,8-30,7-40,9c-11,4-6,6-14,21c3-1,7,1,11,1v3
		c-9-1-15-6-18,5c-11-16-17-16-28-1c11,7,21,13,13,24c-11,13-17-4-6-9c-11-5-18-12-25-3c3,0,6,2,10,2c-3,3-3,11-6,12c-4,3-20-3-24-3
		c-12-3-23-1-35-1c2,14-15,2-20-3c11-11,24-6,36-5c11,3,26,2,27-11c-12-3-16-2-23-11c-3-4-4-7-4-10c-71,29-131,74-178,133
		c11,8,20,15,25,20c8,7,11,14,16,22l6,9c6,6,9,12,10,18c3,8-1,15-2,24c-3,27,1,50,22,69c7,7,12,7,19,14c7,5,5,8,9,15
		c9,16,22,30,33,45c9,13,13,12,4-3l-20-27c0-1-7-14-4-14c15,3,18,13,27,25c11,12,18,19,23,32c7,17,17,25,33,32c8,4,21,13,29,14
		c11,1,14-5,25-1c7,3,11,12,19,15c7,3,12,0,19,4c9,7,11,15,19,22c7,4,14,8,21,11c5,0,11-3,16-2c9,3,12,14,9,23c-4,11-13,17-17,26
		c-3,9-1,17-2,26c0,9-9,0-1,15c3,7,8,12,12,19c9,13,15,24,26,35c8,7,25,15,29,26s2,30-1,41c-4,20-2,45-9,65c-7,19-12,25-7,46
		c1,5,2,7,2,7s-1,3-2,9c-1,3,1,4-2,8c-3,7-8,11-11,18c11,1,9,4,6,8c18-1,35-4,50-7c-4-4-6-7-6-8c0-3,9-14,10-17c3-4,3-14,6-18
		c5-7,16-4,13-15c23,0,33-4,37-27c-2-1-3-2-3-2s0-1-1-3c1,5,18-1,19,2c0,1,22-26,25-29c7-7,11-11,15-18c1-3,3-12,6-16c0,0,0,1-1,2
		c8-12,17-10,28-15s3-4,11-11c9-9,11-4,14-19c3-11-1-19,3-30c4-12,15-16,22-27c5-7,10-20,3-28c-7-7-24-12-32-15c-11-3-21-2-30-6
		c-11-4-19-15-24,2c-3-1-9-4-9-7c0,4,10-2,11-5c-4,0-18,5-21,2c1-4,8-13,9-16c0-11-15-22-24-25c-11-3-17-2-28-9c-12-9-23-19-39-20
		c-3-1-6,1-10,1c-8-3-11-6-18-9c-8-3-11,5-16,5c-8,0-9-8-20-1c-16,11-8,16-26,11c-11-3-21,4-30-3c-8-5-10-21-2-28c-4,3-4-7-7-10
		c-5-3-13,2-18-1c-8-1-13-2-10-9c0-9,23-29,1-29c-12,0-15,17-28,20c-14,3-25-1-32-14c-17-26,10-57,32-59c18-3,48-16,61,5
		c3,7,14,30,19,14c1-4-3-24-6-33c4-7,10-8,15-15c-1,1-2,2-2,2c5-4,17-10,20-17c1-3-5-8-2-13c3-4,7-2,10-5c3-4,4-10,7-14s10-5,13-8
		c8-7,10-15,19-19c9-7,17-16,28-11c-3,4-13,7-16,11c-3,3,16,1,17,1c9-4,17-11,25-16c12-9,27-11,46-6c4,0-8-21-11-21c-7-7-7-13-16-4
		c-3,3-5,11-8,14c-7,11-4,9-17,16c1,0,1-1,2-1c-11,3-18,6-22-6c-1-4,4-9,1-13c-9-9-28,9-37,12c3-32,42-16,62-21c7-3,26-10,27-15
		c1-8-16-20-20-24c-9-7-14-12-19-23c-5-13-7-25-22-16c-5,3-1,11-9,12c-7,1-11-6-14-9c-5-5-10-17-18-18s-28-11-37-4c-7,5,0,25,3,32
		c5,16,8,15-5,26c-7,5-11,0-8,12c1,7,8,7,3,14c-3,4-11,3-14,2c-12-7-2-13-7-21c-4-5-26-10-34-13c-16-8-60-17-47-41c4-7,17-18,24-22
		s13-4,20-11c3-3,3-11,6-14s13-2,20-1h2h-2c26-5,4-41,36-36c9,3,19,12,26,17c9,7,12,5,9,14c-1,3-10,10-13,13c-4,4-10,4-17,7
		c19,0,25,0,40,9c12,8,20,14,35,13c-1-7-14-4-14-12c1-7,9,2,10,2c4,1,15,6,12-6c-2-9-25-6-17-22c9-1,7,11,14,12c7,3,15-5,18-12
		c-9-5-42-14-37-28l61,39c-15,15,11,7,14,7c4,1,17,11,9,14c-9,3-13-10-22-1c7,2,34,3,26,17c-3,5-19,4-24,15c4-1,7,0,11-1
		c-8,12,3,20,10,29c7,11,16,28,31,31c30,8,25-41,49-49c7-3,12,1,19-2s10-7,17-11C793,197,804,196,821,196L821,196L821,196z M502,1
		c276,0,499,223,499,499S778,999,502,999S2,776,2,500S226,1,502,1L502,1L502,1z M689,626c-5,2-6,2-5-1C685,626,686,626,689,626
		L689,626L689,626z M492,416v-3v2V416L492,416z"/>
</g>
</svg>
