<?xml version="1.0" encoding="utf-8"?>
<!-- Generator: Adobe Illustrator 16.0.0, SVG Export Plug-In . SVG Version: 6.00 Build 0)  -->
<!DOCTYPE svg PUBLIC "-//W3C//DTD SVG 1.1//EN" "http://www.w3.org/Graphics/SVG/1.1/DTD/svg11.dtd">
<svg version="1.1" id="Layer_1" xmlns="http://www.w3.org/2000/svg" xmlns:xlink="http://www.w3.org/1999/xlink" x="0px" y="0px"
	 width="1000px" height="1000px" viewBox="0 0 1000 1000" enable-background="new 0 0 1000 1000" xml:space="preserve">
<path fill-rule="evenodd" clip-rule="evenodd" fill="#020202" d="M839.906,735.61h-91.642v91.667c0,21.708-17.54,39.3-39.274,39.3
	s-39.224-17.592-39.224-39.3V735.61h-91.692c-21.684,0-39.326-17.541-39.326-39.249c0-21.709,17.643-39.249,39.326-39.249h91.692
	v-91.667c0-21.709,17.489-39.249,39.224-39.249s39.274,17.54,39.274,39.249v91.667h91.642c21.683,0,39.224,17.54,39.224,39.249
	C879.13,718.069,861.589,735.61,839.906,735.61L839.906,735.61z M303.15,434.555c0-36.155,29.303-65.483,65.458-65.483
	s65.407,29.328,65.407,65.483s-29.252,65.407-65.407,65.407S303.15,470.71,303.15,434.555L303.15,434.555z M538.748,434.555
	c0-36.155,29.354-65.483,65.509-65.483s65.51,29.328,65.51,65.483s-29.354,65.407-65.51,65.407S538.748,470.71,538.748,434.555
	L538.748,434.555z M486.433,696.361c0,4.449,0.665,8.771,1.278,13.015c-0.409,0-0.818,0.077-1.278,0.077
	c-157.15,0-157.15-130.916-157.15-130.916c118.592-39.531,236.979-19.434,288.066-7.16v33.317h-39.274
	C527.446,604.694,486.433,645.784,486.433,696.361L486.433,696.361z M800.631,604.694v-39.249c0-25.135-10.177-47.866-26.541-64.461
	c0-0.332,0.052-0.665,0.052-1.022c0-158.89-128.819-287.684-287.709-287.684c-158.889,0-287.708,128.794-287.708,287.684
	c0,158.914,128.819,287.708,287.708,287.708c19.842,0,39.07-2.48,57.736-6.341c10.534,4.193,21.938,6.673,33.905,6.673h39.274
	v54.029c-40.655,15.648-84.737,24.546-130.916,24.546c-202.459,0-366.564-164.156-366.564-366.615
	c0-202.46,164.105-366.54,366.564-366.54c202.46,0,366.565,164.08,366.565,366.54c0,36.487-5.728,71.568-15.803,104.732H800.631
	L800.631,604.694z"/>
</svg>
