<?xml version="1.0" encoding="utf-8"?>
<!-- Generator: Adobe Illustrator 16.0.0, SVG Export Plug-In . SVG Version: 6.00 Build 0)  -->
<!DOCTYPE svg PUBLIC "-//W3C//DTD SVG 1.1//EN" "http://www.w3.org/Graphics/SVG/1.1/DTD/svg11.dtd">
<svg version="1.1" id="Layer_1" xmlns="http://www.w3.org/2000/svg" xmlns:xlink="http://www.w3.org/1999/xlink" x="0px" y="0px"
	 width="1000px" height="1000px" viewBox="0 0 1000 1000" enable-background="new 0 0 1000 1000" xml:space="preserve">
<path fill-rule="evenodd" clip-rule="evenodd" fill="#020202" d="M499.958,897.501c-219.562,0-397.501-177.939-397.501-397.501
	s177.939-397.501,397.501-397.501S897.542,280.438,897.542,500S719.52,897.501,499.958,897.501L499.958,897.501z M499.958,187.989
	c-172.311,0-312.012,139.7-312.012,312.011s139.701,312.012,312.012,312.012S811.969,672.311,811.969,500
	S672.269,187.989,499.958,187.989L499.958,187.989z M627.735,500c-39.21,0-70.96-31.806-70.96-71.015s31.75-70.96,70.96-70.96
	c39.182,0,71.015,31.751,71.015,70.96S666.917,500,627.735,500L627.735,500z M499.958,727.159
	c-170.342,0-170.342-141.946-170.342-141.946c170.342-56.846,340.739,0,340.739,0S670.355,727.159,499.958,727.159L499.958,727.159z
	 M372.181,500c-39.195,0-70.932-31.806-70.932-71.015s31.736-70.96,70.932-70.96c39.21,0,71.029,31.751,71.029,70.96
	S411.391,500,372.181,500L372.181,500z"/>
</svg>
