<?xml version="1.0" encoding="utf-8"?>
<!-- Generator: Adobe Illustrator 16.0.0, SVG Export Plug-In . SVG Version: 6.00 Build 0)  -->
<!DOCTYPE svg PUBLIC "-//W3C//DTD SVG 1.1//EN" "http://www.w3.org/Graphics/SVG/1.1/DTD/svg11.dtd">
<svg version="1.1" id="Layer_1" xmlns="http://www.w3.org/2000/svg" xmlns:xlink="http://www.w3.org/1999/xlink" x="0px" y="0px"
	 width="1000px" height="1000px" viewBox="0 0 1000 1000" enable-background="new 0 0 1000 1000" xml:space="preserve">
<path fill-rule="evenodd" clip-rule="evenodd" fill="#020202" d="M693.969,861.768C688.417,841.604,499.444,729.301,500,647.508
	c0.959-141.729,143.647-164.468,193.768-42.397c47.949-117.225,192.909-99.659,193.868,42.397
	C888.141,728.771,699.117,840.872,693.969,861.768L693.969,861.768z M655.054,435.368c0,35.735-28.972,64.632-64.656,64.632
	c-35.634,0-64.556-28.896-64.556-64.632c0-35.685,28.922-64.581,64.556-64.581C626.082,370.787,655.054,399.684,655.054,435.368
	L655.054,435.368z M293.261,435.368c0-35.685,28.921-64.581,64.555-64.581c35.686,0,64.657,28.896,64.657,64.581
	c0,35.735-28.972,64.632-64.657,64.632C322.182,500,293.261,471.104,293.261,435.368L293.261,435.368z M448.314,629.187
	c0,29.703,4.492,54.864,11.963,76.82c-140.721-7.723-141.175-128.455-141.175-128.455c52.189-17.438,104.228-22.965,150.512-22.839
	C456.491,572.833,448.314,597.06,448.314,629.187L448.314,629.187z M757.565,489.678c-5.451-151.95-130.07-273.642-283.459-273.642
	c-156.82,0-283.862,127.143-283.862,283.964c0,156.82,127.042,283.963,283.862,283.963c12.114,0,23.976-1.009,35.635-2.473
	c30.334,27.508,67.281,43.482,100.24,53.729c-41.943,16.959-87.723,26.549-135.875,26.549
	c-199.724,0-361.743-161.943-361.743-361.768c0-199.825,162.02-361.769,361.743-361.769c193.516,0,350.992,151.899,360.886,342.916
	C810.058,473.299,782.65,476.101,757.565,489.678L757.565,489.678z"/>
</svg>
