<?xml version="1.0" encoding="utf-8"?>
<!-- Generator: Adobe Illustrator 16.0.0, SVG Export Plug-In . SVG Version: 6.00 Build 0)  -->
<!DOCTYPE svg PUBLIC "-//W3C//DTD SVG 1.1//EN" "http://www.w3.org/Graphics/SVG/1.1/DTD/svg11.dtd">
<svg version="1.1" id="Layer_1" xmlns="http://www.w3.org/2000/svg" xmlns:xlink="http://www.w3.org/1999/xlink" x="0px" y="0px"
	 width="1000px" height="1000px" viewBox="0 0 1000 1000" enable-background="new 0 0 1000 1000" xml:space="preserve">
<g id="female">
	<g>
		<path fill-rule="evenodd" clip-rule="evenodd" fill="#A8A8A8" d="M778.933,309.698V170.649H586.631V25.683H397.287v144.966
			H210.902v139.049h186.385v108.169c-111.589,38.277-192.302,142.936-192.302,267.56c0,156.895,127.215,284.016,284.015,284.016
			c156.801,0,284.016-127.121,284.016-284.016c0-122.405-77.845-225.769-186.385-265.708v-110.02H778.933z M489,780.099
			c-52.329,0-94.672-42.437-94.672-94.672c0-52.329,42.343-94.672,94.672-94.672s94.672,42.343,94.672,94.672
			C583.672,737.662,541.329,780.099,489,780.099z"/>
	</g>
</g>
</svg>
