<?xml version="1.0" encoding="utf-8"?>
<!-- Generator: Adobe Illustrator 16.0.0, SVG Export Plug-In . SVG Version: 6.00 Build 0)  -->
<!DOCTYPE svg PUBLIC "-//W3C//DTD SVG 1.1//EN" "http://www.w3.org/Graphics/SVG/1.1/DTD/svg11.dtd">
<svg version="1.1" id="Layer_1" xmlns="http://www.w3.org/2000/svg" xmlns:xlink="http://www.w3.org/1999/xlink" x="0px" y="0px"
	 width="1000px" height="1000px" viewBox="0 0 1000 1000" enable-background="new 0 0 1000 1000" xml:space="preserve">
<path fill-rule="evenodd" clip-rule="evenodd" fill="#020202" d="M552.296,601.486c0.104,1.771,1.041,3.439,1.041,5.212v53.494
	h160.167c29.512,0,53.494,23.774,53.494,53.335c0,29.458-23.982,53.39-53.494,53.39H553.337v106.831
	c0,29.456-23.877,53.389-53.491,53.389c-29.407,0-53.284-23.933-53.284-53.389V766.917H286.29c-29.406,0-53.284-23.932-53.284-53.39
	c0-29.561,23.877-53.335,53.284-53.335h160.271v-53.494c0-1.772,0.937-3.441,1.042-5.212
	c-122.315-24.351-214.597-132.17-214.597-261.679c0-147.446,119.498-266.944,266.839-266.944
	c147.444,0,267.152,119.498,267.152,266.944C766.998,469.316,674.714,577.136,552.296,601.486L552.296,601.486z M499.846,179.692
	c-88.425,0-160.062,71.69-160.062,160.115c0,88.528,71.636,160.165,160.062,160.165c88.633,0,160.27-71.636,160.27-160.165
	C660.115,251.382,588.479,179.692,499.846,179.692L499.846,179.692z"/>
</svg>
