<?xml version="1.0" encoding="utf-8"?>
<!-- Generator: Adobe Illustrator 16.0.0, SVG Export Plug-In . SVG Version: 6.00 Build 0)  -->
<!DOCTYPE svg PUBLIC "-//W3C//DTD SVG 1.1//EN" "http://www.w3.org/Graphics/SVG/1.1/DTD/svg11.dtd">
<svg version="1.1" id="Layer_1" xmlns="http://www.w3.org/2000/svg" xmlns:xlink="http://www.w3.org/1999/xlink" x="0px" y="0px"
	 width="1000px" height="1010px" viewBox="0 0 1000 1010" enable-background="new 0 0 1000 1010" xml:space="preserve">
<g>
	<path d="M10,915.539c3.651-66.329,13.873-104.95,22.634-128.46c5.111-14.272,10.952-24.349,16.063-31.065
		c7.301-5.877,19.713-14.272,37.237-24.349c29.936-17.631,81.775-43.659,170.122-86.479c-0.73-15.953,1.46-26.868,3.65-34.424
		l3.651-10.915l5.111-5.877c3.651-4.198,7.301-5.878,12.412-5.878l-0.73-78.083c-5.111-10.915-8.762-20.99-12.412-30.226
		l-5.111-13.434c-0.73-4.198-2.19-8.396-3.651-13.434c-2.19-8.396-4.381-18.472-5.841-29.387l-12.412-8.396
		c-5.841-33.584-8.031-52.896-8.031-65.49c-0.73-6.717,0-11.754,0.73-15.113c0.73-2.519,2.19-4.198,3.65-5.877
		c2.921-3.358,6.571-4.198,10.952-3.358c-2.92-57.933-2.92-93.196-2.19-114.186c0.73-12.594,0.73-20.99,1.46-26.868
		c8.031-44.499,43.078-74.725,78.854-90.677c22.634-9.236-8.031-17.632,30.666-15.113c37.236,2.519,59.871,5.038,82.505,15.953
		c31.396,14.273,63.521,40.301,74.474,81.441l2.19,27.707c0.73,22.669,0.73,58.772-2.19,122.583
		c3.65,0.839,8.031,1.679,11.683,4.198c1.46,0.84,2.92,2.519,3.65,4.198c0.73,2.519,0.73,6.717,0,12.594
		c-0.73,10.915-2.19,30.226-10.222,66.329l-11.683,9.235c-2.19,12.595-5.11,23.509-7.301,32.745l-4.381,14.273l-5.111,14.273
		l-13.143,30.226v70.526c5.841,0.84,10.222,2.519,13.873,5.038l5.11,5.037c1.461,2.52,2.921,5.038,4.381,9.236
		c2.19,6.717,4.381,17.631,5.111,36.942c75.934,40.301,123.393,66.329,152.598,83.121l39.428,23.509
		c9.492,7.557,17.523,19.311,24.824,33.584c12.413,26.027,24.095,67.169,21.904,134.337H10L10,915.539z M766.42,820.664
		c-0.73-30.227-13.143-53.735-27.016-70.527c-8.031-9.235-16.793-17.632-26.284-25.188l-26.285-15.952
		c-19.714-12.594-50.379-29.386-102.219-58.772l66.442-26.027l9.491-16.792c-5.841-5.878-19.713-10.075-32.126-15.953
		c-7.301-2.519-15.332-5.877-24.094-8.396c-26.285-6.717-4.381-252.722,18.983-306.456c17.523-37.782,22.634-55.414,50.379-68.848
		c31.396-13.434,76.664-15.113,100.759,0.839c22.635,15.953,45.999,36.943,54.76,69.688
		c20.444,74.725,47.459,299.739,12.413,306.456c-8.762,1.68-16.794,3.358-24.825,5.877c-13.872,4.198-27.015,10.076-29.936,16.793
		l17.523,14.272c53.3,42.82,88.347,67.169,110.98,81.442c12.412,8.396,23.364,14.273,31.396,17.632
		c7.302,5.877,13.873,12.594,18.984,21.829C975.238,758.533,984,782.882,984,818.984L766.42,820.664L766.42,820.664z"/>
</g>
</svg>
