<?xml version="1.0" encoding="utf-8"?>
<!-- Generator: Adobe Illustrator 16.0.0, SVG Export Plug-In . SVG Version: 6.00 Build 0)  -->
<!DOCTYPE svg PUBLIC "-//W3C//DTD SVG 1.1//EN" "http://www.w3.org/Graphics/SVG/1.1/DTD/svg11.dtd">
<svg version="1.1" id="Layer_1" xmlns="http://www.w3.org/2000/svg" xmlns:xlink="http://www.w3.org/1999/xlink" x="0px" y="0px"
	 width="1000px" height="1000px" viewBox="0 0 1000 1000" enable-background="new 0 0 1000 1000" xml:space="preserve">
<path fill-rule="evenodd" clip-rule="evenodd" fill="#020202" d="M894.124,828.404v32.84c0,18.186-14.752,32.842-32.842,32.842
	h-32.84v0.641H616.13l92.879-92.877L584.507,677.348l0,0c-11.609-11.867-18.793-28.094-18.793-46.021
	c0-36.209,29.377-65.65,65.682-65.65c17.896,0,34.061,7.184,45.99,18.857c0-0.064,0-0.064,0-0.064l0.449,0.418l0,0l124.053,124.084
	l92.877-92.879v212.313H894.124L894.124,828.404z M677.835,415.036c0,0.08,0,0.08,0,0.08l-0.449,0.417c0,0,0,0,0-0.08
	c-11.867,11.674-28.094,18.857-45.99,18.857c-36.305,0-65.682-29.425-65.682-65.649c0-17.929,7.184-34.173,18.793-46.007l0,0
	l124.502-124.518l-92.879-92.878h212.313v0.673h32.84c18.09,0,32.842,14.721,32.842,32.825v32.825h0.641v212.313l-92.877-92.879
	L677.835,415.036L677.835,415.036z M499.968,565.676c-36.178,0-65.619-29.441-65.619-65.715c0-36.209,29.441-65.65,65.619-65.65
	c36.305,0,65.746,29.441,65.746,65.65C565.714,536.234,536.272,565.676,499.968,565.676L499.968,565.676z M368.603,434.311
	c-17.832,0-34.06-7.184-45.926-18.857c0,0.08,0,0.08,0,0.08l-0.514-0.417l0,0L198.175,291.016l-92.942,92.879V171.582h0.77v-32.825
	c0-18.104,14.625-32.825,32.777-32.825h32.841v-0.673h212.313l-92.879,92.878l123.988,124.005c0,0,0.128,0,0.128,0.096l0.385,0.417
	c0,0,0,0-0.063,0c11.674,11.834,18.857,28.078,18.857,46.007C434.349,404.886,404.907,434.311,368.603,434.311L368.603,434.311z
	 M322.677,584.469c0,0,0,0,0,0.064c11.866-11.674,28.094-18.857,45.926-18.857c36.305,0,65.746,29.441,65.746,65.65
	c0,17.928-7.184,34.154-18.857,46.021c0.063,0,0.063,0,0.063,0l-0.385,0.416h-0.128L291.054,801.85l92.879,92.877H171.62v-0.641
	h-32.841c-18.152,0-32.777-14.656-32.777-32.842v-32.84h-0.77V616.092l92.942,92.879L322.677,584.469L322.677,584.469z"/>
</svg>
