<?xml version="1.0" encoding="utf-8"?>
<!-- Generator: Adobe Illustrator 16.0.0, SVG Export Plug-In . SVG Version: 6.00 Build 0)  -->
<!DOCTYPE svg PUBLIC "-//W3C//DTD SVG 1.1//EN" "http://www.w3.org/Graphics/SVG/1.1/DTD/svg11.dtd">
<svg version="1.1" id="Layer_1" xmlns="http://www.w3.org/2000/svg" xmlns:xlink="http://www.w3.org/1999/xlink" x="0px" y="0px"
	 width="1000px" height="1000px" viewBox="0 0 1000 1000" enable-background="new 0 0 1000 1000" xml:space="preserve">
<g id="gift_副本">
	<g>
		<path fill-rule="evenodd" clip-rule="evenodd" fill="#A8A8A8" d="M255.283,277.37c0,14.601,9.925,27,32.049,39.788
			c13.809,2.618,59.724,5.884,112.227,5.884c5.898,0,11.278-0.044,16.384-0.13v-44.85c-43.843-36.753-86.607-65.292-102.546-66.673
			C289.447,211.388,255.283,254.052,255.283,277.37z M755.648,667.232h-44.42v-44.42c0-8.141-6.589-14.73-14.729-14.73h-14.73
			c-8.141,0-14.728,6.59-14.728,14.73v44.42h-44.42c-8.144,0-14.73,6.589-14.73,14.73v14.729c0,8.126,6.587,14.729,14.73,14.729
			h44.42v44.419c0,8.144,6.587,14.73,14.728,14.73h14.73c8.141,0,14.729-6.587,14.729-14.73v-44.419h44.42
			c8.142,0,14.73-6.603,14.73-14.729v-14.729C770.379,673.821,763.79,667.232,755.648,667.232z M829.44,19.585H166
			c-81.346,0-147.298,65.939-147.298,147.296v661.688c0,81.358,65.952,147.296,147.298,147.296h663.44
			c81.344,0,147.298-65.938,147.298-147.296V166.882C976.738,85.524,910.784,19.585,829.44,19.585z M268.921,829.13
			c-16.284,0-29.46-13.19-29.46-29.46V578.711c0-16.27,13.176-29.46,29.46-29.46h354.735
			c-52.764,24.627-89.414,78.008-89.414,140.076c0,61.839,36.394,115.062,88.854,139.803H268.921z M688.444,799.341
			c-61.021,0-110.474-49.455-110.474-110.474c0-61.02,49.453-110.473,110.474-110.473c61.019,0,110.471,49.453,110.471,110.473
			C798.915,749.886,749.463,799.341,688.444,799.341z M799.348,475.617c0,16.27-13.176,29.458-29.458,29.458H210.001
			c-16.282,0-29.458-13.188-29.458-29.458v-88.393c0-16.269,13.176-29.46,29.458-29.46h59.323
			c-18.528-10.199-58.214-34.105-58.214-80.41c0-46.878,55.106-113.695,106.33-110.011c27.546,1.969,71.433,32.163,108.129,61.551
			c10.068-8.373,29.314-18.557,64.484-18.283c35.143,0.272,54.23,10.342,64.168,18.541c36.769-29.473,80.813-59.825,108.447-61.809
			c51.207-3.684,106.328,63.133,106.328,110.011c0,46.305-39.687,70.211-58.214,80.41h59.107c16.282,0,29.458,13.191,29.458,29.46
			V475.617z M724.793,277.37c0-23.303-34.12-65.982-58.947-65.952c-15.318,1.337-58.086,30.034-101.986,66.901l0.173,44.578
			c5.15,0.071,10.559,0.13,16.514,0.13c52.43,0,98.332-3.251,112.228-5.84C714.883,304.398,724.793,292.013,724.793,277.37z
			 M490.24,357.678h-0.375c0,0.029-0.072,0.057-0.084,0.086h0.546C490.312,357.735,490.24,357.708,490.24,357.678z"/>
	</g>
</g>
</svg>
