<?xml version="1.0" encoding="utf-8"?>
<!-- Generator: Adobe Illustrator 16.0.0, SVG Export Plug-In . SVG Version: 6.00 Build 0)  -->
<!DOCTYPE svg PUBLIC "-//W3C//DTD SVG 1.1//EN" "http://www.w3.org/Graphics/SVG/1.1/DTD/svg11.dtd">
<svg version="1.1" id="Layer_1" xmlns="http://www.w3.org/2000/svg" xmlns:xlink="http://www.w3.org/1999/xlink" x="0px" y="0px"
	 width="1000px" height="1000px" viewBox="0 0 1000 1000" enable-background="new 0 0 1000 1000" xml:space="preserve">
<g id="gift">
	<g>
		<path fill-rule="evenodd" clip-rule="evenodd" fill="#A8A8A8" d="M796.711,474.257v-86.952c0-16.005-12.962-28.98-28.98-28.98
			h-58.145c18.228-10.033,57.268-33.552,57.268-79.102c0-46.115-54.223-111.844-104.6-108.222
			c-27.183,1.953-70.51,31.811-106.679,60.804c-9.779-8.065-28.557-17.971-63.125-18.241c-34.591-0.268-53.532,9.75-63.43,17.986
			c-36.105-28.91-79.284-58.611-106.376-60.549c-50.382-3.622-104.6,62.107-104.6,108.222c0,45.55,39.049,69.069,57.26,79.102
			h-58.356c-16.003,0-28.98,12.976-28.98,28.98v86.952c0,16.005,12.978,28.98,28.98,28.98H767.73
			C783.749,503.237,796.711,490.262,796.711,474.257z M419.545,324.036c-5.021,0.086-10.307,0.128-16.116,0.128
			c-51.642,0-96.809-3.213-110.409-5.787c-21.762-12.58-31.519-24.778-31.519-39.14c0-22.938,33.606-64.907,57.16-64.907
			c15.687,1.356,57.754,29.432,100.884,65.585V324.036z M492.188,358.324c0.008-0.029,0.071-0.058,0.071-0.085h0.383
			c0,0.028,0.063,0.056,0.071,0.085H492.188z M581.471,324.15c-5.86,0-11.181-0.056-16.247-0.126l-0.169-43.854
			c43.188-36.267,85.256-64.497,100.327-65.813c24.424-0.027,57.988,41.956,57.988,64.88c0,14.404-9.751,26.588-31.498,39.168
			C678.201,320.951,633.047,324.15,581.471,324.15z M753.723,662.755h-43.697v-43.697c0-8.008-6.48-14.488-14.488-14.488h-14.492
			c-8.008,0-14.488,6.48-14.488,14.488v43.697h-43.697c-8.008,0-14.49,6.48-14.49,14.49v14.49c0,7.995,6.482,14.49,14.49,14.49
			h43.697v43.695c0,8.01,6.48,14.492,14.488,14.492h14.492c8.008,0,14.488-6.482,14.488-14.492v-43.695h43.697
			c8.01,0,14.49-6.495,14.49-14.49v-14.49C768.213,669.235,761.732,662.755,753.723,662.755z M826.314,25.647H173.668
			c-80.027,0-144.899,64.867-144.899,144.899v650.92c0,80.035,64.872,144.899,144.899,144.899h652.646
			c80.02,0,144.899-64.864,144.899-144.899v-650.92C971.214,90.514,906.334,25.647,826.314,25.647z M927.73,821.467
			c0,55.922-45.494,101.416-101.416,101.416H173.668c-55.922,0-101.421-45.494-101.421-101.416v-650.92
			c0-55.95,45.5-101.444,101.421-101.444h652.646c55.922,0,101.416,45.494,101.416,101.444V821.467z M688.064,532.346
			c-22.965,0-44.658,5.235-64.187,14.349h-348.97c-16.005,0-28.98,12.976-28.98,28.98v217.363c0,16.005,12.976,28.98,28.98,28.98
			h348.418c19.669,9.283,41.547,14.616,64.738,14.616c84.024,0,152.146-68.118,152.146-152.146
			C840.21,600.466,772.089,532.346,688.064,532.346z M687.612,792.713c-60.027,0-108.675-48.649-108.675-108.675
			s48.647-108.676,108.675-108.676c60.025,0,108.674,48.65,108.674,108.676S747.638,792.713,687.612,792.713z"/>
	</g>
</g>
</svg>
