<?xml version="1.0" encoding="utf-8"?>
<!-- Generator: Adobe Illustrator 16.0.0, SVG Export Plug-In . SVG Version: 6.00 Build 0)  -->
<!DOCTYPE svg PUBLIC "-//W3C//DTD SVG 1.1//EN" "http://www.w3.org/Graphics/SVG/1.1/DTD/svg11.dtd">
<svg version="1.1" id="Layer_1" xmlns="http://www.w3.org/2000/svg" xmlns:xlink="http://www.w3.org/1999/xlink" x="0px" y="0px"
	 width="1000px" height="1000px" viewBox="0 0 1000 1000" enable-background="new 0 0 1000 1000" xml:space="preserve">
<path fill-rule="evenodd" clip-rule="evenodd" fill="#020202" d="M500.424,858.569C488.657,815.686,95.188,577.009,96.279,403.02
	C98.221,101.776,395.431,53.282,500,312.855c99.656-249.171,401.718-211.898,403.72,90.164
	C904.812,575.795,511.1,814.078,500.424,858.569L500.424,858.569z M500,454.85c-186.272-279.499-279.499-186.303-279.499-62.081
	c0,155.277,270.461,308.765,279.499,341.64c9.037-32.875,279.498-186.362,279.498-341.64
	C779.498,268.547,686.332,175.351,500,454.85L500,454.85z"/>
</svg>
