<?xml version="1.0" encoding="utf-8"?>
<!-- Generator: Adobe Illustrator 16.0.0, SVG Export Plug-In . SVG Version: 6.00 Build 0)  -->
<!DOCTYPE svg PUBLIC "-//W3C//DTD SVG 1.1//EN" "http://www.w3.org/Graphics/SVG/1.1/DTD/svg11.dtd">
<svg version="1.1" id="Layer_1" xmlns="http://www.w3.org/2000/svg" xmlns:xlink="http://www.w3.org/1999/xlink" x="0px" y="0px"
	 width="1000px" height="1000px" viewBox="0 0 1000 1000" enable-background="new 0 0 1000 1000" xml:space="preserve">
<path d="M82.161,82.173c-82.896,82.946-82.866,217.242,0,300.198l83.057,83.047h171.774l-40.404-40.409l-0.13,0.13l-128.52-128.514
	c-35.441-35.602-35.466-93.104,0.016-128.666c35.541-35.48,93.063-35.461,128.634-0.03l169.009,169.004V165.351l-83.212-83.217
	C299.408-0.712,165.107-0.723,82.161,82.173z"/>
<path d="M832.772,167.959c35.48,35.562,35.45,93.064,0.009,128.666L704.268,425.139l-0.141-0.13l-40.399,40.409h171.795
	l83.046-83.047c82.865-82.956,82.887-217.251,0-300.198c-82.956-82.896-217.281-82.886-300.228-0.04l-83.178,83.187v171.583
	L704.138,167.93C739.688,132.499,797.2,132.479,832.772,167.959z"/>
<path d="M835.522,535.005H663.728l40.399,40.389l0.141-0.12l128.514,128.524c35.441,35.602,35.472,93.093-0.009,128.665
	c-35.572,35.49-93.084,35.451-128.635,0.021L535.163,663.499v171.594l83.178,83.167c82.946,82.845,217.271,82.876,300.228-0.011
	c82.887-82.956,82.865-217.262,0-300.198L835.522,535.005z"/>
<path d="M167.953,832.463c-35.481-35.572-35.457-93.063-0.016-128.665l128.52-128.524l0.13,0.12l40.404-40.389H165.218
	l-83.057,83.046c-82.866,82.937-82.896,217.242,0,300.198c82.946,82.887,217.247,82.855,300.223,0.011l83.212-83.188V663.499
	L296.587,832.483C261.016,867.914,203.494,867.953,167.953,832.463z"/>
</svg>
