<svg xmlns="http://www.w3.org/2000/svg" width="1000" height="1000" viewBox="0 0 1000 1000"><path d="M82.161 82.173c-82.896 82.946-82.866 217.242 0 300.198l83.057 83.047h171.774l-40.404-40.409-.13.13-128.52-128.514c-35.441-35.602-35.466-93.104.016-128.666 35.541-35.48 93.063-35.461 128.634-.03l169.009 169.004v-171.582l-83.212-83.217c-82.977-82.846-217.278-82.857-300.224.039zM832.772 167.959c35.48 35.562 35.45 93.064.009 128.666l-128.513 128.514-.141-.13-40.399 40.409h171.795l83.046-83.047c82.865-82.956 82.887-217.251 0-300.198-82.956-82.896-217.281-82.886-300.228-.04l-83.178 83.187v171.583l168.975-168.973c35.55-35.431 93.062-35.451 128.634.029zM835.522 535.005h-171.794l40.399 40.389.141-.12 128.514 128.524c35.441 35.602 35.472 93.093-.009 128.665-35.572 35.49-93.084 35.451-128.635.021l-168.975-168.985v171.594l83.178 83.167c82.946 82.845 217.271 82.876 300.228-.011 82.887-82.956 82.865-217.262 0-300.198l-83.047-83.046zM167.953 832.463c-35.481-35.572-35.457-93.063-.016-128.665l128.52-128.524.13.12 40.404-40.389h-171.773l-83.057 83.046c-82.866 82.937-82.896 217.242 0 300.198 82.946 82.887 217.247 82.855 300.223.011l83.212-83.188v-171.573l-169.009 168.984c-35.571 35.431-93.093 35.47-128.634-.02z"/></svg>