<?xml version="1.0" encoding="utf-8"?>
<!-- Generator: Adobe Illustrator 16.0.0, SVG Export Plug-In . SVG Version: 6.00 Build 0)  -->
<!DOCTYPE svg PUBLIC "-//W3C//DTD SVG 1.1//EN" "http://www.w3.org/Graphics/SVG/1.1/DTD/svg11.dtd">
<svg version="1.1" id="Layer_1" xmlns="http://www.w3.org/2000/svg" xmlns:xlink="http://www.w3.org/1999/xlink" x="0px" y="0px"
	 width="1002px" height="999px" viewBox="0 0 1002 999" enable-background="new 0 0 1002 999" xml:space="preserve">
<g>
	<path d="M542,545v149h68c0-17,8-26,17-30c5-3,10-4,17-4h102v68h-68v101h68v68H644c-7,0-12-1-17-4c-9-4-17-13-17-30h-68v85
		c0,28-23,51-51,51s-51-23-51-51V547c-131-21-230-136-230-272C210,123,333,0,485,0c153,0,276,123,276,275C761,408,667,518,542,545
		L542,545L542,545z M485,113c-88,0-162,74-162,162c0,90,74,163,162,163c90,0,163-73,163-163C648,187,575,113,485,113L485,113z"/>
</g>
</svg>
