<?xml version="1.0" encoding="utf-8"?>
<!-- Generator: Adobe Illustrator 16.0.0, SVG Export Plug-In . SVG Version: 6.00 Build 0)  -->
<!DOCTYPE svg PUBLIC "-//W3C//DTD SVG 1.1//EN" "http://www.w3.org/Graphics/SVG/1.1/DTD/svg11.dtd">
<svg version="1.1" id="Layer_1" xmlns="http://www.w3.org/2000/svg" xmlns:xlink="http://www.w3.org/1999/xlink" x="0px" y="0px"
	 width="1000px" height="1000px" viewBox="0 0 1000 1000" enable-background="new 0 0 1000 1000" xml:space="preserve">
<g id="like">
	<g>
		<path fill="#A8A8A8" d="M840.179,334.108H772.25V162.162c0-56.252-45.64-101.894-101.895-101.894
			c-56.254,0-101.89-2.122-101.89-2.122s2.122,203.788,0,273.841c-2.092,70.053-203.758,205.91-203.758,205.91v271.716
			c0,75.028,60.831,135.859,135.86,135.859h339.611c75.096,0,135.859-60.831,135.859-135.859V469.968
			C976.038,394.939,915.274,334.108,840.179,334.108z M907.71,773.524c0,47.369-32.966,85.378-76.685,96.789
			c-12.074,4.376-24.677,7.363-38.209,7.363h-245.15c-62.59,0-115.027-50.75-115.027-113.37l-0.432-184.284
			c0,0,202.196-132.41,201.865-216.328c-0.198-58.508,0-237.62,0-237.62s68.126-17.579,68.126,69.789v205.047l103.619-0.995
			c56.254,0,101.894,45.64,101.894,101.894V773.524z M24.697,603.704v205.908c0,75.028,60.831,135.859,135.86,135.859h135.859
			V467.846H160.557C85.528,467.846,24.697,528.677,24.697,603.704z M771.851,537.896h67.931v-67.928h-67.931V537.896z
			 M771.851,673.757h67.931v-67.929h-67.931V673.757z M771.851,809.612h67.931v-67.929h-67.931V809.612z"/>
	</g>
</g>
</svg>
