<?xml version="1.0" encoding="utf-8"?>
<!-- Generator: Adobe Illustrator 16.0.0, SVG Export Plug-In . SVG Version: 6.00 Build 0)  -->
<!DOCTYPE svg PUBLIC "-//W3C//DTD SVG 1.1//EN" "http://www.w3.org/Graphics/SVG/1.1/DTD/svg11.dtd">
<svg version="1.1" id="Layer_1" xmlns="http://www.w3.org/2000/svg" xmlns:xlink="http://www.w3.org/1999/xlink" x="0px" y="0px"
	 width="1000px" height="1000px" viewBox="0 0 1000 1000" enable-background="new 0 0 1000 1000" xml:space="preserve">
<g id="location">
	<g>
		<path fill-rule="evenodd" clip-rule="evenodd" fill="#A8A8A8" d="M942.61,270.181v0.094l0.417,0L942.61,270.181z M444.838,870.422
			h-99.555V372.65h-99.555v-99.555h-99.556v99.555H46.617v597.328h398.221l497.772-0.111V270.274l-497.772-0.291V870.422z
			 M245.728,571.761h-99.556v-99.555h99.556V571.761z M743.5,372.65h99.555v99.556H743.5V372.65z M544.394,372.65h99.551v99.556
			h-99.551V372.65z M696.251,24.207l-252,245.777h0.586h496.898L696.251,24.207z M942.61,269.984h-0.874l0.874,0.197V269.984z"/>
	</g>
</g>
</svg>
