<?xml version="1.0" encoding="utf-8"?>
<!-- Generator: Adobe Illustrator 16.0.0, SVG Export Plug-In . SVG Version: 6.00 Build 0)  -->
<!DOCTYPE svg PUBLIC "-//W3C//DTD SVG 1.1//EN" "http://www.w3.org/Graphics/SVG/1.1/DTD/svg11.dtd">
<svg version="1.1" id="Layer_1" xmlns="http://www.w3.org/2000/svg" xmlns:xlink="http://www.w3.org/1999/xlink" x="0px" y="0px"
	 width="1003px" height="1007px" viewBox="0 0 1003 1007" enable-background="new 0 0 1003 1007" xml:space="preserve">
<g>
	<path d="M632,343v-60c0-79-65-144-144-144c-80,0-145,65-145,144v60H204v-60C204,127,332,0,488,0s283,127,283,283v60H632L632,343z
		 M187,388h610c48,5,86,46,86,95v419c0,53-42,96-97,96H197c-53,0-96-43-96-96V483C101,434,138,393,187,388L187,388L187,388z
		 M448,842l79,1l2-137c35-15,56-48,56-87c0-53-43-96-96-96s-96,43-96,96c0,37,21,70,53,86L448,842L448,842z"/>
</g>
</svg>
