<?xml version="1.0" encoding="utf-8"?>
<!-- Generator: Adobe Illustrator 16.0.0, SVG Export Plug-In . SVG Version: 6.00 Build 0)  -->
<!DOCTYPE svg PUBLIC "-//W3C//DTD SVG 1.1//EN" "http://www.w3.org/Graphics/SVG/1.1/DTD/svg11.dtd">
<svg version="1.1" id="Layer_1" xmlns="http://www.w3.org/2000/svg" xmlns:xlink="http://www.w3.org/1999/xlink" x="0px" y="0px"
	 width="1000px" height="1000px" viewBox="0 0 1000 1000" enable-background="new 0 0 1000 1000" xml:space="preserve">
<g id="lock">
	<g>
		<path fill-rule="evenodd" clip-rule="evenodd" fill="#A8A8A8" d="M852.577,344.046h-2.237c0.062-0.684,0.249-1.307,0.249-1.988
			v-190.89c0-70.278-56.98-127.259-127.261-127.259H277.923c-70.279,0-127.26,56.981-127.26,127.259v190.89
			c0,0.745,0.217,1.428,0.217,2.173C81.44,345.164,25.392,401.646,25.392,471.302v381.78c0,70.278,56.981,127.259,127.259,127.259
			h699.926c70.278,0,127.259-56.98,127.259-127.259v-381.78C979.836,401.026,922.855,344.046,852.577,344.046z M277.923,151.167
			h445.405v192.878H277.923V151.167z M850.589,853.082H150.663V469.314h699.926V853.082z"/>
	</g>
</g>
</svg>
