<?xml version="1.0" encoding="utf-8"?>
<!-- Generator: Adobe Illustrator 16.0.0, SVG Export Plug-In . SVG Version: 6.00 Build 0)  -->
<!DOCTYPE svg PUBLIC "-//W3C//DTD SVG 1.1//EN" "http://www.w3.org/Graphics/SVG/1.1/DTD/svg11.dtd">
<svg version="1.1" id="Layer_1" xmlns="http://www.w3.org/2000/svg" xmlns:xlink="http://www.w3.org/1999/xlink" x="0px" y="0px"
	 width="1000px" height="1000px" viewBox="0 0 1000 1000" enable-background="new 0 0 1000 1000" xml:space="preserve">
<path fill-rule="evenodd" clip-rule="evenodd" fill="#020202" d="M761.926,657.15c0,144.645-117.434,261.873-262.08,261.873
	c-144.541,0-261.771-117.229-261.771-261.873c0-127.102,90.531-232.822,210.523-256.709c-0.104-1.738-1.023-3.375-1.023-5.268
	V268.736l-58.717,58.871c-20.459,20.357-53.705,20.357-74.063,0c-20.459-20.561-20.459-53.705,0-74.111l135.951-136.104
	c6.955-20.92,25.982-36.418,49.1-36.418c23.426,0,42.453,15.498,49.307,36.418l135.949,136.104
	c20.563,20.406,20.563,53.551,0,74.111c-20.459,20.357-53.5,20.357-74.061,0l-58.717-58.871v126.438
	c0,1.893-0.922,3.529-1.023,5.268C671.395,424.328,761.926,530.049,761.926,657.15L761.926,657.15z M499.846,499.975
	c-86.744,0-157.021,70.275-157.021,157.176c0,86.746,70.277,157.021,157.021,157.021c86.951,0,157.229-70.275,157.229-157.021
	C657.074,570.25,586.797,499.975,499.846,499.975L499.846,499.975z"/>
</svg>
