<?xml version="1.0" encoding="utf-8"?>
<!-- Generator: Adobe Illustrator 16.0.0, SVG Export Plug-In . SVG Version: 6.00 Build 0)  -->
<!DOCTYPE svg PUBLIC "-//W3C//DTD SVG 1.1//EN" "http://www.w3.org/Graphics/SVG/1.1/DTD/svg11.dtd">
<svg version="1.1" id="Layer_1" xmlns="http://www.w3.org/2000/svg" xmlns:xlink="http://www.w3.org/1999/xlink" x="0px" y="0px"
	 width="1000px" height="1000px" viewBox="0 0 1000 1000" enable-background="new 0 0 1000 1000" xml:space="preserve">
<g id="male">
	<g>
		<path fill-rule="evenodd" clip-rule="evenodd" d="M580.938,452.72V288.961l58.811,60.365l164.702,0.774L492.635,30
			L186.332,347.341l161.773,0.693l56.226-58.211v161.174c-104.092,35.705-179.367,133.317-179.367,249.559
			c0,146.253,118.564,264.911,264.91,264.911c146.253,0,264.911-118.658,264.911-264.911
			C754.786,586.38,682.172,489.973,580.938,452.72z M492.635,788.858c-48.809,0-88.303-39.575-88.303-88.304
			c0-48.809,39.494-88.303,88.303-88.303c48.804,0,88.304,39.494,88.304,88.303C580.938,749.283,541.438,788.858,492.635,788.858z"
			/>
	</g>
</g>
</svg>
