<?xml version="1.0" encoding="utf-8"?>
<!-- Generator: Adobe Illustrator 16.0.0, SVG Export Plug-In . SVG Version: 6.00 Build 0)  -->
<!DOCTYPE svg PUBLIC "-//W3C//DTD SVG 1.1//EN" "http://www.w3.org/Graphics/SVG/1.1/DTD/svg11.dtd">
<svg version="1.1" id="Layer_1" xmlns="http://www.w3.org/2000/svg" xmlns:xlink="http://www.w3.org/1999/xlink" x="0px" y="0px"
	 width="1000px" height="1000px" viewBox="0 0 1000 1000" enable-background="new 0 0 1000 1000" xml:space="preserve">
<path fill-rule="evenodd" clip-rule="evenodd" fill="#020202" d="M883.074,174.854L174.396,883.61
	c-15.925,15.846-41.584,15.846-57.509,0c-15.819-15.898-15.819-41.663,0-57.482l708.73-708.678
	c15.872-15.925,41.584-15.925,57.456,0C898.946,133.269,898.946,159.034,883.074,174.854L883.074,174.854z M499.98,188.953
	c-59.837,0-108.352,48.567-108.352,108.352v162.58c0,4.604,0.794,8.994,1.322,13.544l-65.074,65.102
	c-11.005-24.02-17.512-50.525-17.512-78.646v-162.58c0-104.701,84.914-189.563,189.615-189.563
	c70.154,0,130.731,38.516,163.48,95.178l-60.948,60.975C588.334,220.511,548.072,188.953,499.98,188.953L499.98,188.953z
	 M174.926,459.885h2.751c-1.534-4.312-2.751-8.782-2.751-13.544c0-22.458,18.199-40.658,40.632-40.658
	c22.432,0,40.685,18.2,40.685,40.658c0,4.762-1.27,9.232-2.804,13.544h2.804c0,43.251,11.375,83.856,31.162,119.092l-58.938,58.964
	C194.766,586.807,174.926,525.753,174.926,459.885L174.926,459.885z M499.98,649.448c-4.655,0-8.994-1.032-13.491-1.323
	l203.107-203.159v14.919C689.597,564.612,604.735,649.448,499.98,649.448L499.98,649.448z M322.216,812.372
	c0.582-0.079,1.059-0.344,1.693-0.344h121.896v-31.955c-24.654-4.18-48.25-11.375-70.63-20.66l63.699-63.778
	c19.628,5.026,39.997,8.042,61.106,8.042c134.594,0,243.792-109.198,243.792-243.792h2.751c-1.534-4.312-2.751-8.782-2.751-13.544
	c0-22.458,18.146-40.658,40.632-40.658c22.432,0,40.579,18.2,40.579,40.658c0,4.762-1.164,9.232-2.698,13.544h2.698
	c0,161.047-117.135,294.291-270.827,320.188v31.955h121.896c22.432,0,40.579,18.146,40.579,40.605s-18.147,40.605-40.579,40.605
	H323.909c-22.485,0-40.632-18.146-40.632-40.605c0-0.635,0.317-1.111,0.37-1.666L322.216,812.372L322.216,812.372z"/>
</svg>
