<?xml version="1.0" encoding="utf-8"?>
<!-- Generator: Adobe Illustrator 16.0.0, SVG Export Plug-In . SVG Version: 6.00 Build 0)  -->
<!DOCTYPE svg PUBLIC "-//W3C//DTD SVG 1.1//EN" "http://www.w3.org/Graphics/SVG/1.1/DTD/svg11.dtd">
<svg version="1.1" id="Layer_1" xmlns="http://www.w3.org/2000/svg" xmlns:xlink="http://www.w3.org/1999/xlink" x="0px" y="0px"
	 width="1000px" height="1000px" viewBox="0 0 1000 1000" enable-background="new 0 0 1000 1000" xml:space="preserve">
<path fill-rule="evenodd" clip-rule="evenodd" fill="#020202" d="M859.255,455.589c0,177.953-129.54,325.239-299.425,353.831v35.315
	h134.715c24.82,0,44.964,20.143,44.964,44.905c0,24.82-20.144,44.963-44.964,44.963H305.369c-24.747,0-44.876-20.143-44.876-44.963
	c0-24.763,20.129-44.905,44.876-44.905h134.715V809.42c-169.797-28.592-299.337-175.878-299.337-353.831h3.011
	c-1.695-4.795-3.011-9.647-3.011-14.969c0-24.82,20.128-44.948,44.876-44.948c24.835,0,44.963,20.128,44.963,44.948
	c0,5.321-1.389,10.174-3.084,14.969h3.084c0,148.806,120.595,269.4,269.415,269.4s269.415-120.595,269.415-269.4h3.011
	c-1.695-4.795-3.011-9.647-3.011-14.969c0-24.82,20.113-44.948,44.875-44.948c24.821,0,44.964,20.128,44.964,44.948
	c0,5.321-1.374,10.174-3.069,14.969H859.255L859.255,455.589z M500.001,665.087c-115.741,0-209.586-93.757-209.586-209.498V275.91
	c0-115.741,93.845-209.497,209.586-209.497c115.756,0,209.483,93.756,209.483,209.497v179.679
	C709.484,571.33,615.757,665.087,500.001,665.087L500.001,665.087z M619.732,275.91c0-66.07-53.646-119.746-119.731-119.746
	c-66.159,0-119.746,53.676-119.746,119.746v179.679c0,66.071,53.587,119.746,119.746,119.746
	c66.086,0,119.731-53.675,119.731-119.746V275.91L619.732,275.91z"/>
</svg>
