<?xml version="1.0" encoding="utf-8"?>
<!-- Generator: Adobe Illustrator 16.0.0, SVG Export Plug-In . SVG Version: 6.00 Build 0)  -->
<!DOCTYPE svg PUBLIC "-//W3C//DTD SVG 1.1//EN" "http://www.w3.org/Graphics/SVG/1.1/DTD/svg11.dtd">
<svg version="1.1" id="Layer_1" xmlns="http://www.w3.org/2000/svg" xmlns:xlink="http://www.w3.org/1999/xlink" x="0px" y="0px"
	 width="1000px" height="1000px" viewBox="0 0 1000 1000" enable-background="new 0 0 1000 1000" xml:space="preserve">
<path fill-rule="evenodd" clip-rule="evenodd" fill="#020202" d="M792.733,734.206c0,48.492-39.285,87.835-87.777,87.835h-29.25
	H207.238h-29.264c-48.563,0-87.85-39.343-87.85-87.835V353.588v-29.265v-58.6c0-48.492,39.286-87.777,87.85-87.777H382.88
	c38.242,0,106.334,24.503,133.854,58.528h158.972c48.492,0,87.807,39.356,87.807,87.849v58.528h58.585
	c48.492,0,87.778,39.357,87.778,87.85L792.733,734.206L792.733,734.206z M675.706,353.588c0-16.141-13.124-29.265-29.335-29.265
	H461.766c-19.828-34.081-69.979-58.6-108.149-58.6h-87.85c-48.492,0-87.792,39.372-87.792,87.864v87.863v161.002l58.528-131.752
	c0-48.492,39.285-87.85,87.863-87.85h351.34V353.588L675.706,353.588z M763.513,470.701H353.616
	c-16.212,0-29.25,13.124-29.25,29.264l-87.863,204.963c0,16.154,13.123,29.278,29.264,29.278h409.939
	c16.154,0,29.25-13.124,29.25-29.278l87.777-204.963C792.733,483.825,779.695,470.701,763.513,470.701L763.513,470.701z"/>
</svg>
