<?xml version="1.0" encoding="utf-8"?>
<!-- Generator: Adobe Illustrator 16.0.0, SVG Export Plug-In . SVG Version: 6.00 Build 0)  -->
<!DOCTYPE svg PUBLIC "-//W3C//DTD SVG 1.1//EN" "http://www.w3.org/Graphics/SVG/1.1/DTD/svg11.dtd">
<svg version="1.1" id="Layer_1" xmlns="http://www.w3.org/2000/svg" xmlns:xlink="http://www.w3.org/1999/xlink" x="0px" y="0px"
	 width="1000px" height="1000px" viewBox="0 0 1000 1000" enable-background="new 0 0 1000 1000" xml:space="preserve">
<path fill-rule="evenodd" clip-rule="evenodd" fill="#020202" d="M772.566,851.525c-71.863,0-130.064-58.202-130.064-129.989
	c0-71.812,58.201-130.014,130.064-130.014c71.787,0,129.989,58.202,129.989,130.014
	C902.556,793.323,844.354,851.525,772.566,851.525L772.566,851.525z M850.524,721.536c0-12.011-2.869-23.26-7.745-33.442
	L739.073,791.774c10.183,4.901,21.432,7.771,33.493,7.771C815.634,799.545,850.524,764.654,850.524,721.536L850.524,721.536z
	 M694.533,721.536c0,12.037,2.895,23.286,7.771,33.469L806.01,651.324c-10.208-4.876-21.457-7.771-33.443-7.771
	C729.424,643.554,694.533,678.47,694.533,721.536L694.533,721.536z M835.72,587.892c-5.027-3.124-10.259-5.942-15.591-8.431
	C824.877,580.883,830.185,583.676,835.72,587.892L835.72,587.892z M689.581,535.251c26.054,8.913,57.414,22.168,83.112,31.614
	c-4.418-0.381-8.685-1.346-13.204-1.346c-45.708,0-85.982,21.839-112.163,55.281c-21.305-13.534-45.886-29.354-70.796-37.912
	c-28.872-9.929-38.18-31.894-39.652-54.063c1.409-2.006,2.807-4.139,4.152-6.298c2.666-3.275,4.824-6.881,6.297-10.843
	c18.08-33.747,29.686-74.555,47.689-93.092c23.031-23.845,0-142.939,0-142.939s-36.643-37.709-69.261-71.406
	c-4.621-4.748-11.249-8.354-18.613-11.376c5.828-8.964,11.655-17.217,16.277-21.965c20.759-21.433,62.354-21.433,62.354-21.433
	s62.29,0,83.062,21.433c29.405,30.345,62.341,64.296,62.341,64.296s20.746,107.16,0,128.592
	c-23.235,23.972-34.561,88.826-68.436,117.343C659.846,504.652,664.822,526.744,689.581,535.251L689.581,535.251z M534.999,418.594
	c-25.787,26.587-38.306,98.653-76.015,130.318c-3.213,26.13,2.272,50.635,29.799,60.157
	c48.564,16.684,114.283,47.028,137.848,47.562c-6.297,16.125-10.106,33.545-10.106,51.904c0,34.764,12.9,66.226,33.545,91.01
	H396.491H96.431c0,0,0,0,0-47.612s46.216-95.251,69.26-95.251c23.108,0,89.55-30.802,138.509-47.612
	c27.526-9.522,33.023-34.027,29.812-60.157c-37.709-31.665-50.241-103.731-75.951-130.318c-23.108-23.845,0-142.939,0-142.939
	s29.799-54.57,46.14-71.406c23.044-23.844,69.184-23.844,69.184-23.844s69.261,0,92.368,23.844
	c32.618,33.697,69.248,71.406,69.248,71.406S558.044,394.749,534.999,418.594L534.999,418.594z"/>
</svg>
