<?xml version="1.0" encoding="utf-8"?>
<!-- Generator: Adobe Illustrator 16.0.0, SVG Export Plug-In . SVG Version: 6.00 Build 0)  -->
<!DOCTYPE svg PUBLIC "-//W3C//DTD SVG 1.1//EN" "http://www.w3.org/Graphics/SVG/1.1/DTD/svg11.dtd">
<svg version="1.1" id="Layer_1" xmlns="http://www.w3.org/2000/svg" xmlns:xlink="http://www.w3.org/1999/xlink" x="0px" y="0px"
	 width="1000px" height="1000px" viewBox="0 0 1000 1000" enable-background="new 0 0 1000 1000" xml:space="preserve">
<path fill-rule="evenodd" clip-rule="evenodd" fill="none" d="M949.138,976c-902.103-2.172-4.488-2.172-902.138,0
	c0-213.149,98.119-334.636,241.92-388.707c-66.616-59.373-108.582-145.83-108.582-242.104C180.338,166.141,325.407,21,504.356,21
	c178.962,0,324.03,145.141,324.03,324.189c0,97.748-43.252,185.392-111.655,244.828C855.325,644.76,949.138,764.372,949.138,976
	L949.138,976z M508.273,135.953c-114.499,0-207.315,92.846-207.315,207.409c0,114.545,92.816,207.409,207.315,207.409
	c114.498,0,207.308-92.863,207.308-207.409C715.581,228.799,622.771,135.953,508.273,135.953L508.273,135.953z M501.826,672.252
	c-159.514,0-326.52,92.698-326.52,184.679c574.763-1.292,75.428-1.292,653.04,0C828.347,764.95,661.34,672.252,501.826,672.252
	L501.826,672.252z"/>
</svg>
