<?xml version="1.0" encoding="utf-8"?>
<!-- Generator: Adobe Illustrator 16.0.0, SVG Export Plug-In . SVG Version: 6.00 Build 0)  -->
<!DOCTYPE svg PUBLIC "-//W3C//DTD SVG 1.1//EN" "http://www.w3.org/Graphics/SVG/1.1/DTD/svg11.dtd">
<svg version="1.1" id="Layer_1" xmlns="http://www.w3.org/2000/svg" xmlns:xlink="http://www.w3.org/1999/xlink" x="0px" y="0px"
	 width="1000px" height="1000px" viewBox="0 0 1000 1000" enable-background="new 0 0 1000 1000" xml:space="preserve">
<path fill-rule="evenodd" clip-rule="evenodd" fill="#020202" d="M500.001,894.742H105.252c0,0,0,0,0-60.671
	c0-60.79,60.7-121.491,91.036-121.491c30.439,0,117.799-39.262,182.252-60.761c36.207-12.039,43.397-43.413,39.172-76.654
	c-49.507-40.447-66.009-132.345-99.947-166.283c-30.351-30.351,0-182.162,0-182.162s39.261-69.612,60.775-91.11
	c30.335-30.351,91.11-30.351,91.11-30.351s91.037,0,121.461,30.351c42.969,42.938,91.066,91.11,91.066,91.11
	s30.307,151.812,0,182.162c-33.982,33.938-50.411,125.836-99.992,166.283c-4.21,33.241,3.084,64.615,39.262,76.654
	c64.408,21.499,151.827,60.761,182.192,60.761c30.336,0,91.096,60.701,91.096,121.491c0,60.671,0,60.671,0,60.671H500.001
	L500.001,894.742z"/>
</svg>
