<?xml version="1.0" encoding="utf-8"?>
<!-- Generator: Adobe Illustrator 16.0.0, SVG Export Plug-In . SVG Version: 6.00 Build 0)  -->
<!DOCTYPE svg PUBLIC "-//W3C//DTD SVG 1.1//EN" "http://www.w3.org/Graphics/SVG/1.1/DTD/svg11.dtd">
<svg version="1.1" id="Layer_1" xmlns="http://www.w3.org/2000/svg" xmlns:xlink="http://www.w3.org/1999/xlink" x="0px" y="0px"
	 width="1000px" height="1000px" viewBox="0 0 1000 1000" enable-background="new 0 0 1000 1000" xml:space="preserve">
<path fill-rule="evenodd" clip-rule="evenodd" fill="#020202" d="M778.43,748.433c-13.235-35.555-37.128-66.119-54.159-66.119
	c-24.68,0-75.883-48.111-128.17-66.064c-30.755-10.604-40.844-34.063-42.362-57.739c1.654-2.306,3.228-4.638,4.719-7.133
	c2.604-3.254,4.665-6.672,6.184-10.522c19.526-36.138,31.813-80.127,51.203-100.087c24.625-25.466,0-152.646,0-152.646
	s-39.135-40.273-73.984-76.248c-4.827-5.085-11.986-8.882-19.865-12.164c6.225-9.519,12.435-18.319,17.452-23.459
	c22.157-22.889,66.525-22.889,66.525-22.889s66.526,0,88.765,22.889c31.324,32.396,66.526,68.669,66.526,68.669
	s22.184,114.447,0,137.337c-24.815,25.614-36.83,94.853-73.035,125.322c-3.064,25.113,2.224,48.626,28.693,57.793
	c47.054,16.164,110.867,45.779,133.024,45.779c22.266,0,66.607,45.778,66.607,91.558c0,45.725,0,45.725,0,45.725H778.43
	L778.43,748.433z M551.731,440.768c-27.527,28.395-40.897,105.375-81.103,139.194c-3.431,27.906,2.44,54.077,31.839,64.248
	c52.301,17.953,123.248,50.85,147.846,50.85c24.706,0,73.957,50.878,73.957,101.729s0,50.851,0,50.851H403.818H83.434
	c0,0,0,0,0-50.851S132.725,695.06,157.39,695.06c24.612,0,95.572-32.896,147.859-50.85c29.398-10.171,35.271-36.342,31.84-64.248
	c-40.206-33.819-53.59-110.8-81.117-139.194c-24.679-25.466,0-152.646,0-152.646s31.826-58.295,49.277-76.248
	c24.68-25.466,73.971-25.466,73.971-25.466l19.947,329.389l0,0L379.22,186.407c0,0,73.957,0,98.568,25.466
	c34.836,35.975,73.943,76.248,73.943,76.248S576.411,415.302,551.731,440.768L551.731,440.768z"/>
</svg>
