<?xml version="1.0" encoding="utf-8"?>
<!-- Generator: Adobe Illustrator 16.0.0, SVG Export Plug-In . SVG Version: 6.00 Build 0)  -->
<!DOCTYPE svg PUBLIC "-//W3C//DTD SVG 1.1//EN" "http://www.w3.org/Graphics/SVG/1.1/DTD/svg11.dtd">
<svg version="1.1" id="Layer_1" xmlns="http://www.w3.org/2000/svg" xmlns:xlink="http://www.w3.org/1999/xlink" x="0px" y="0px"
	 width="1000px" height="1000px" viewBox="0 0 1000 1000" enable-background="new 0 0 1000 1000" xml:space="preserve">
<g id="picture">
	<g>
		<path fill-rule="evenodd" clip-rule="evenodd" fill="#A8A8A8" d="M849.984,99.704h-702.03
			c-64.616,0-117.005,52.389-117.005,117.005v585.025c0,64.615,52.389,117.005,117.005,117.005h702.03
			c64.615,0,117.005-52.39,117.005-117.005V216.709C966.989,152.093,914.6,99.704,849.984,99.704z M851.813,673.818
			c-31.08-83.242-89.125-193.392-177.337-186.536c-140.771,10.969-151.741,193.79-204.757,201.103
			c-53.018,7.313-47.534-117.005-157.226-109.692c-60.645,4.057-120.605,62.56-162.71,114.378V275.212
			c0-32.337,26.194-58.503,58.502-58.503H793.31c32.337,0,58.503,26.166,58.503,58.503V673.818z M411.216,275.212
			c-48.477,0-87.754,39.307-87.754,87.754c0,48.448,39.277,87.752,87.754,87.752c48.448,0,87.752-39.304,87.752-87.752
			C498.968,314.519,459.664,275.212,411.216,275.212z"/>
	</g>
</g>
</svg>
