<?xml version="1.0" encoding="utf-8"?>
<!-- Generator: Adobe Illustrator 16.0.0, SVG Export Plug-In . SVG Version: 6.00 Build 0)  -->
<!DOCTYPE svg PUBLIC "-//W3C//DTD SVG 1.1//EN" "http://www.w3.org/Graphics/SVG/1.1/DTD/svg11.dtd">
<svg version="1.1" id="Layer_1" xmlns="http://www.w3.org/2000/svg" xmlns:xlink="http://www.w3.org/1999/xlink" x="0px" y="0px"
	 width="1000px" height="1000px" viewBox="0 0 1000 1000" enable-background="new 0 0 1000 1000" xml:space="preserve">
<g id="profile">
	<g>
		<path fill-rule="evenodd" clip-rule="evenodd" fill="#A8A8A8" d="M561.748,556.494c81.706-39.217,138.605-121.979,138.605-218.677
			c0-134.331-108.942-243.219-243.246-243.219c-134.331,0-243.22,108.889-243.22,243.219c0,96.699,56.846,179.46,138.554,218.677
			C186.6,598.087,58.392,734.212,30.787,905.227h74.29v0.052h702.637v-0.052h75.796C855.85,734.212,727.642,598.087,561.748,556.494
			z M322.011,339.454c0-74.635,60.489-135.123,135.123-135.123c74.633,0,135.122,60.488,135.122,135.123
			c0,74.633-60.489,135.122-135.122,135.122C382.5,474.576,322.011,414.087,322.011,339.454z M177.177,815.761
			c47.188-111.425,160.643-182.573,281.303-182.573c120.686,0,240.872,77.905,281.303,182.573H177.177z M691.908,148.593
			l5.067,5.278c19.213,31.459,39.06,65.873,47.609,102.82h224.324V148.593H691.908z M714.816,472.887h254.093V364.789H751.552
			C748.385,402.688,737.512,454.309,714.816,472.887z M862.711,689.082h106.198V580.984h-198.62
			C803.807,612.918,838.222,649.126,862.711,689.082z"/>
	</g>
</g>
</svg>
