<?xml version="1.0" encoding="utf-8"?>
<!-- Generator: Adobe Illustrator 16.0.0, SVG Export Plug-In . SVG Version: 6.00 Build 0)  -->
<!DOCTYPE svg PUBLIC "-//W3C//DTD SVG 1.1//EN" "http://www.w3.org/Graphics/SVG/1.1/DTD/svg11.dtd">
<svg version="1.1" id="Layer_1" xmlns="http://www.w3.org/2000/svg" xmlns:xlink="http://www.w3.org/1999/xlink" x="0px" y="0px"
	 width="1000px" height="1000px" viewBox="0 0 1000 1000" enable-background="new 0 0 1000 1000" xml:space="preserve">
<path fill-rule="evenodd" clip-rule="evenodd" fill="#020202" d="M797.417,798.404H201.595c-46.991,0-85.144-38.069-85.144-85.144
	V287.738c0-46.99,38.152-85.143,85.144-85.143h595.822c46.991,0,85.116,38.152,85.116,85.143v425.522
	C882.533,760.335,844.408,798.404,797.417,798.404L797.417,798.404z M797.417,316.083c0-15.627-12.745-28.345-28.371-28.345H229.952
	c-15.641,0-28.357,12.718-28.357,28.345v368.834c0,15.627,12.717,28.344,28.357,28.344h539.094
	c15.626,0,28.371-12.717,28.371-28.344V316.083L797.417,316.083z M712.274,656.545H598.787c-15.655,0-28.345-12.689-28.345-28.344
	c0-15.71,12.689-28.428,28.345-28.428h113.487c15.71,0,28.427,12.718,28.427,28.428
	C740.701,643.855,727.984,656.545,712.274,656.545L712.274,656.545z M712.274,543.058H598.787
	c-15.655,0-28.345-12.718-28.345-28.344c0-15.71,12.689-28.428,28.345-28.428h113.487c15.71,0,28.427,12.718,28.427,28.428
	C740.701,530.34,727.984,543.058,712.274,543.058L712.274,543.058z M712.274,429.57H598.787c-15.655,0-28.345-12.718-28.345-28.344
	c0-15.71,12.689-28.428,28.345-28.428h113.487c15.71,0,28.427,12.718,28.427,28.428C740.701,416.853,727.984,429.57,712.274,429.57
	L712.274,429.57z M542.07,656.545H400.226H258.38c0,0,0,0,0-24.021c0-23.967,21.777-48.017,32.735-48.017
	c10.889,0,34.204-15.487,57.367-23.966c18.203-6.733,16.084-28.067,10.667-45.827c-9.642-17.622-15.336-40.203-24.409-50.205
	c-10.889-11.997,0-72.065,0-72.065s14.116-27.458,21.86-35.937c10.889-12.08,32.667-12.08,32.667-12.08s32.735,0,43.693,12.08
	c15.419,16.957,32.735,35.937,32.735,35.937s10.889,60.068,0,72.065c-4.82,5.265-8.686,14.241-12.634,24.104l0.443-0.138
	c0,0-1.178,2.354-2.633,5.402c-1.315,3.297-2.701,6.428-4.17,9.726c-7.384,18.563-15.487,48.736,6.803,56.938
	c23.163,8.479,44.94,23.966,55.829,23.966s32.735,24.05,32.735,48.017C542.07,656.545,542.07,656.545,542.07,656.545L542.07,656.545
	z"/>
</svg>
