<?xml version="1.0" encoding="utf-8"?>
<!-- Generator: Adobe Illustrator 16.0.0, SVG Export Plug-In . SVG Version: 6.00 Build 0)  -->
<!DOCTYPE svg PUBLIC "-//W3C//DTD SVG 1.1//EN" "http://www.w3.org/Graphics/SVG/1.1/DTD/svg11.dtd">
<svg version="1.1" id="Layer_1" xmlns="http://www.w3.org/2000/svg" xmlns:xlink="http://www.w3.org/1999/xlink" x="0px" y="0px"
	 width="1000px" height="1000px" viewBox="0 0 1000 1000" enable-background="new 0 0 1000 1000" xml:space="preserve">
<g id="question">
	<g>
		<path fill-rule="evenodd" clip-rule="evenodd" fill="#A8A8A8" d="M500.271,20C235.011,20,20,235.011,20,500.271
			c0,265.259,215.011,480.27,480.271,480.27c265.192,0,480.27-215.011,480.27-480.27C980.541,235.011,765.463,20,500.271,20z
			 M500.271,774.711c-37.892,0-68.61-30.758-68.61-68.609c0-37.926,30.719-68.61,68.61-68.61c37.891,0,68.61,30.685,68.61,68.61
			C568.881,743.953,538.162,774.711,500.271,774.711z M500.271,568.881v-0.205h-68.61V465.761h68.61v0.205
			c56.847,0,102.915-46.098,102.915-102.915c0-56.818-46.067-102.916-102.915-102.916c-56.852,0-102.916,46.098-102.916,102.916
			c0,0.735,0.4,1.403,0.434,2.144H294.64c0-0.741-0.2-1.409-0.2-2.144c0-113.704,92.126-205.831,205.831-205.831
			c113.635,0,205.831,92.126,205.831,205.831C706.102,476.686,613.906,568.881,500.271,568.881z"/>
	</g>
</g>
</svg>
