<svg xmlns="http://www.w3.org/2000/svg" width="1000" height="1000" viewBox="0 0 1000 1000"><path fill="#050000" stroke="#fff" stroke-miterlimit="10" d="M969.14 392.255l-208.636 195.08c-10.823 10.367-13.072 15.336-10.823 29.745l4.531 24.843c-100.855-1.291-213.102-5.882-304.111-18.753-7.42-1.108-.548-5.138-.548-5.138l295.902-205.114s11.711-7.27-.821-9.161c-16.196-2.634-50.082-7.264-50.017-7.329-59.876-7.329-125.6-11.365-194.584-11.365-116.941 0-224.571 11.625-310.052 31.134l8.724-.065c126.493 0 261.065 4.806 382.544 23.799 7.655 1.03-.098 5.849-.098 5.849l-295.505 209.979s-12.415 7.368-.985 9.193c30.587 4.199 62.842 7.524 96.428 9.858l.17-.117c38.195 2.713 78.047 4.16 119.086 4.16 111.177 0 231.092-12.375 318.313-33.254l5.94-1.16c-14.612 11.828-39.069 22.286-64.31 30.828l42.153 231.287c4.577 24.868-9.591 34.857-31.486 22.207l-246.426-142.297c-16.894-10.458-32.777-10.133-50.004.679l-245.24 141.619c-21.882 12.65-35.999 2.687-31.343-22.194l55.09-289.878c2.869-13.015 2.699-17.058-7.427-26.524l-214.849-197.533c-18.295-17.461-12.675-33.801 12.48-36.318l273.825-30.73c21.289-2.028 25.344-5.399 34.127-20.271l128.854-268.257c11.045-22.743 29.12-22.743 40.171 0l120.893 268.257c6.755 17.579 11.605 20.956 33.227 22.978l282.68 28.024c25.161 2.516 30.618 18.7 12.127 35.939z"/></svg>