<?xml version="1.0" encoding="utf-8"?>
<!-- Generator: Adobe Illustrator 16.0.0, SVG Export Plug-In . SVG Version: 6.00 Build 0)  -->
<!DOCTYPE svg PUBLIC "-//W3C//DTD SVG 1.1//EN" "http://www.w3.org/Graphics/SVG/1.1/DTD/svg11.dtd">
<svg version="1.1" id="Layer_1" xmlns="http://www.w3.org/2000/svg" xmlns:xlink="http://www.w3.org/1999/xlink" x="0px" y="0px"
	 width="1000px" height="1000px" viewBox="0 0 1000 1000" enable-background="new 0 0 1000 1000" xml:space="preserve">
<path fill-rule="evenodd" clip-rule="evenodd" fill="#020202" d="M817.67,874.124H651.681c-30.593,0-55.294-24.81-55.294-55.375
	V708.054c0-30.593,24.701-55.32,55.294-55.32v-55.402c0-45.835,37.133-82.968,83.021-82.968c45.835,0,82.968,37.133,82.968,82.968
	v55.402c30.592,0,55.401,24.728,55.401,55.32v110.695C873.071,849.314,848.262,874.124,817.67,874.124L817.67,874.124z
	 M762.376,597.331c0-15.242-12.432-27.646-27.674-27.646c-15.296,0-27.728,12.404-27.728,27.646v55.402h55.401V597.331
	L762.376,597.331z M734.702,735.7c-15.296,0-27.728,12.405-27.728,27.729c0,15.242,12.432,27.646,27.728,27.646
	c15.242,0,27.674-12.404,27.674-27.646C762.376,748.105,749.944,735.7,734.702,735.7L734.702,735.7z M624.439,565.631l-0.433-2.865
	l0.811-0.783C624.655,563.198,624.439,564.414,624.439,565.631L624.439,565.631z M624.007,625.06H374.942l138.369-138.424
	l-193.717-55.32h304.412L471.746,583.521L624.007,625.06L624.007,625.06L624.007,625.06z M840.371,424.991L782.807,489.5
	c-6.54-1.648-13.296-2.864-20.431-2.864c-4.757,0-9.351,0.648-13.837,1.433c-4.54-0.784-9.135-1.433-13.837-1.433
	c-4.757,0-9.297,0.648-13.837,1.433c-4.54-0.784-9.081-1.433-13.891-1.433c-2.541,0-5.027,0.567-7.621,0.784l35.349-35.35v-6.918
	c7.621,0,13.837-6.189,13.837-13.837c0-7.621-6.216-13.811-13.837-13.811c-2.486,0-4.702,0.838-6.757,1.974L568.659,396.75
	l-68.158-159.151h-1.026c0-7.648-6.162-13.838-13.837-13.838c-7.676,0-13.892,6.189-13.892,13.838h-0.919L402.616,396.75
	l-159.287,22.729c-2-1.136-4.216-1.974-6.811-1.974c-7.621,0-13.837,6.189-13.837,13.811c0,7.647,6.216,13.837,13.837,13.837v6.918
	l110.695,110.695L319.595,756.51l166.043-83.049l83.021,41.484v75.076l-83.021-40.917l-190.313,93.805l-1.783-1.216
	c-4.378,3-9.729,4.702-15.458,4.702c-15.297,0-27.675-12.323-27.675-27.646c0-4.433,1.189-8.648,3.027-12.351l25.565-215.121
	L130.958,424.991l1.784-3.297c-4.217-4.838-6.811-11.107-6.811-18.026c0-15.323,12.323-27.728,27.619-27.728
	c1.514,0,2.919,0.216,4.379,0.514l0.107-0.217l199.879-40.43l102.317-195.095h1.567c4.757-8.188,13.621-13.837,23.837-13.837
	c10.215,0,19.079,5.648,23.836,13.837h1.567l102.264,195.095l199.986,40.43l0.055,0.217c1.405-0.298,2.864-0.514,4.324-0.514
	c15.35,0,27.728,12.404,27.728,27.728c0,6.919-2.595,13.188-6.919,18.026L840.371,424.991L840.371,424.991z"/>
</svg>
