<?xml version="1.0" encoding="utf-8"?>
<!-- Generator: Adobe Illustrator 16.0.0, SVG Export Plug-In . SVG Version: 6.00 Build 0)  -->
<!DOCTYPE svg PUBLIC "-//W3C//DTD SVG 1.1//EN" "http://www.w3.org/Graphics/SVG/1.1/DTD/svg11.dtd">
<svg version="1.1" id="Layer_1" xmlns="http://www.w3.org/2000/svg" xmlns:xlink="http://www.w3.org/1999/xlink" x="0px" y="0px"
	 width="1000px" height="1000px" viewBox="0 0 1000 1000" enable-background="new 0 0 1000 1000" xml:space="preserve">
<path fill="#050000" stroke="#FFFFFF" stroke-miterlimit="10" d="M969.14,392.255l-208.636,195.08
	c-10.823,10.367-13.072,15.336-10.823,29.745l4.531,24.843c-100.855-1.291-213.102-5.882-304.111-18.753
	c-7.42-1.108-0.548-5.138-0.548-5.138l295.902-205.114c0,0,11.711-7.27-0.821-9.161c-16.196-2.634-50.082-7.264-50.017-7.329
	c-59.876-7.329-125.6-11.365-194.584-11.365c-116.941,0-224.571,11.625-310.052,31.134c2.908,0,5.816-0.065,8.724-0.065
	c126.493,0,261.065,4.806,382.544,23.799c7.655,1.03-0.098,5.849-0.098,5.849L285.646,655.759c0,0-12.415,7.368-0.985,9.193
	c30.587,4.199,62.842,7.524,96.428,9.858l0.17-0.117c38.195,2.713,78.047,4.16,119.086,4.16
	c111.177,0,231.092-12.375,318.313-33.254l5.94-1.16c-14.612,11.828-39.069,22.286-64.31,30.828l42.153,231.287
	c4.577,24.868-9.591,34.857-31.486,22.207L524.529,786.464c-16.894-10.458-32.777-10.133-50.004,0.679l-245.24,141.619
	c-21.882,12.65-35.999,2.687-31.343-22.194l55.09-289.878c2.869-13.015,2.699-17.058-7.427-26.524L30.756,392.633
	c-18.295-17.461-12.675-33.801,12.48-36.318l273.825-30.73c21.289-2.028,25.344-5.399,34.127-20.271L480.042,37.057
	c11.045-22.743,29.12-22.743,40.171,0l120.893,268.257c6.755,17.579,11.605,20.956,33.227,22.978l282.68,28.024
	C982.174,358.832,987.631,375.016,969.14,392.255z"/>
</svg>
