<?xml version="1.0" encoding="utf-8"?>
<!-- Generator: Adobe Illustrator 16.0.0, SVG Export Plug-In . SVG Version: 6.00 Build 0)  -->
<!DOCTYPE svg PUBLIC "-//W3C//DTD SVG 1.1//EN" "http://www.w3.org/Graphics/SVG/1.1/DTD/svg11.dtd">
<svg version="1.1" id="Layer_1" xmlns="http://www.w3.org/2000/svg" xmlns:xlink="http://www.w3.org/1999/xlink" x="0px" y="0px"
	 width="1000px" height="1000px" viewBox="0 0 1000 1000" enable-background="new 0 0 1000 1000" xml:space="preserve">
<path fill-rule="evenodd" clip-rule="evenodd" fill="#020202" d="M865.626,432.651l1.933,3.388l-153.52,172.339l26.548,222.915
	c1.904,3.837,3.164,8.205,3.164,12.77c0,15.879-12.854,28.732-28.732,28.732c-5.909,0-11.453-1.848-16.019-4.956l-1.848,1.344
	l-197.151-97.287l-197.206,97.287l-1.849-1.344c-4.578,3.108-10.123,4.956-16.032,4.956c-15.879,0-28.662-12.854-28.662-28.732
	c0-4.564,1.189-8.849,3.108-12.77l26.506-222.915L132.389,436.039l1.918-3.388c-4.354-5.041-7.1-11.538-7.1-18.707
	c0-15.879,12.784-28.648,28.663-28.648c1.554,0,3.024,0.224,4.509,0.447l0.153-0.224l207.106-41.811l105.996-202.163h1.625
	c4.942-8.569,14.114-14.339,24.741-14.339c10.572,0,19.729,5.77,24.672,14.339h1.625l105.996,202.163l207.204,41.811l0.056,0.224
	c1.457-0.224,2.969-0.447,4.509-0.447c15.879,0,28.732,12.77,28.732,28.648C872.795,421.113,870.079,427.61,865.626,432.651
	L865.626,432.651z M758.09,428.282c-2.604,0-4.957,0.896-7.029,2.072l-165.086-23.552l-70.613-164.945h-1.021
	c0-7.897-6.428-14.339-14.339-14.339c-7.967,0-14.394,6.441-14.394,14.339h-0.967l-70.683,164.945l-165.086,23.552
	c-2.072-1.176-4.368-2.072-7.015-2.072c-7.911,0-14.339,6.441-14.339,14.338c0,7.897,6.428,14.339,14.339,14.339v7.141
	l114.706,114.706L327.9,779.568l172.101-86.029l172.031,86.029l-28.677-200.763L758.09,464.1v-7.141
	c7.896,0,14.31-6.441,14.31-14.339C772.399,434.724,765.986,428.282,758.09,428.282L758.09,428.282z M643.355,643.384h-258.06
	l143.354-143.383L327.9,442.62h315.455L485.607,600.313L643.355,643.384L643.355,643.384z"/>
</svg>
