<?xml version="1.0" encoding="utf-8"?>
<!-- Generator: Adobe Illustrator 16.0.0, SVG Export Plug-In . SVG Version: 6.00 Build 0)  -->
<!DOCTYPE svg PUBLIC "-//W3C//DTD SVG 1.1//EN" "http://www.w3.org/Graphics/SVG/1.1/DTD/svg11.dtd">
<svg version="1.1" id="Layer_1" xmlns="http://www.w3.org/2000/svg" xmlns:xlink="http://www.w3.org/1999/xlink" x="0px" y="0px"
	 width="1000px" height="1000px" viewBox="0 0 1000 1000" enable-background="new 0 0 1000 1000" xml:space="preserve">
<g id="refresh">
	<g>
		<path fill-rule="evenodd" clip-rule="evenodd" fill="#A8A8A8" d="M551.092,78.398c-173.561,0-320.329,107.059-382.52,258.141
			H27.901l203.393,203.423l203.423-203.423H310.711c51.153-77.98,138.013-130.071,238.379-130.071
			c159.149,0,288.157,129.008,288.157,288.155c0,159.149-129.008,288.157-288.157,288.157c-91.893,0-172.78-43.835-225.56-110.81
			l-0.562,0.563c-11.665-12.132-27.86-19.824-46.025-19.824c-35.364,0-64.035,28.642-64.035,64.035
			c0,21.136,10.944,39.021,26.763,50.653c76.23,87.109,186.603,143.452,311.419,143.452c229.876,0,416.227-186.351,416.227-416.227
			C967.318,264.75,780.968,78.398,551.092,78.398z"/>
	</g>
</g>
</svg>
