<?xml version="1.0" encoding="utf-8"?>
<!-- Generator: Adobe Illustrator 16.0.0, SVG Export Plug-In . SVG Version: 6.00 Build 0)  -->
<!DOCTYPE svg PUBLIC "-//W3C//DTD SVG 1.1//EN" "http://www.w3.org/Graphics/SVG/1.1/DTD/svg11.dtd">
<svg version="1.1" id="Layer_1" xmlns="http://www.w3.org/2000/svg" xmlns:xlink="http://www.w3.org/1999/xlink" x="0px" y="0px"
	 width="1000px" height="1000px" viewBox="0 0 1000 1000" enable-background="new 0 0 1000 1000" xml:space="preserve">
<path fill-rule="evenodd" clip-rule="evenodd" fill="#020202" d="M837.23,727.968c-47.573,82.688-128.117,148.92-191.394,157.496
	c-1.217,0.145-2.434,0.231-3.65,0.231c-9.909,0-19.064-5.359-23.468-13.993c-4.926-9.706-2.607-21.237,5.62-28.654
	c1.333-1.13,78.4-72.142,66.869-176.907c-9.098-82.602-113.862-112.327-189.713-112.327c-0.116,0-0.116,0-0.174,0v74.952
	c0,36.245-24.164,52.644-46.53,52.644c-12.227,0-24.512-4.346-36.737-12.806L140.379,452.321
	c-16.398-11.444-26.539-29.407-26.539-48.297c0-18.804,10.141-36.767,27.697-49.138l287.758-226.886
	c13.27-9.388,13.27-13.676,25.496-13.676c22.366,0,46.53,16.428,46.53,52.586v73.968c84.311,6.026,279.528,36.679,351.729,186.236
	C899.406,523.015,893.728,629.838,837.23,727.968L837.23,727.968z M766.422,470.053c-36.854-55.251-118.673-148.398-326.407-148.398
	v-88.946l-177.95,118.673c-17.674,12.371-29.553,33.84-29.553,52.644c0,18.89,10.141,36.853,26.597,48.297l99.608,67.854
	c12.169,8.576,81.298,38.823,81.298,38.823v-88.946c148.456,0,259.596,44.328,296.738,118.673
	c32.392,64.812,36.391,102.563,33.493,124.032c-3.071,8.17-6.2,16.427-9.388,24.598c0,0,7.012-6.779,9.388-24.598
	C800.667,631.663,820.311,550.916,766.422,470.053L766.422,470.053z"/>
</svg>
