<?xml version="1.0" encoding="utf-8"?>
<!-- Generator: Adobe Illustrator 16.0.0, SVG Export Plug-In . SVG Version: 6.00 Build 0)  -->
<!DOCTYPE svg PUBLIC "-//W3C//DTD SVG 1.1//EN" "http://www.w3.org/Graphics/SVG/1.1/DTD/svg11.dtd">
<svg version="1.1" id="Layer_1" xmlns="http://www.w3.org/2000/svg" xmlns:xlink="http://www.w3.org/1999/xlink" x="0px" y="0px"
	 width="1000px" height="1000px" viewBox="0 0 1000 1000" enable-background="new 0 0 1000 1000" xml:space="preserve">
<path fill-rule="evenodd" clip-rule="evenodd" fill="#020202" d="M866.361,222.877l3.313,3.33L758.961,336.904l95.939,95.955
	H669.582v-0.713H601.67c-18.684,0-33.857-15.205-33.857-33.891v-67.912h-0.729V145.027l95.939,95.938l110.713-110.713l3.313,3.33
	c10.535-23.936,34.387-40.633,62.148-40.633c37.5,0,67.912,30.313,67.912,67.813C907.109,188.541,890.279,212.393,866.361,222.877
	L866.361,222.877z M499.967,567.838c-37.434,0-67.846-30.41-67.846-67.879c0-37.4,30.412-67.813,67.846-67.813
	c37.436,0,67.846,30.412,67.846,67.813C567.813,537.428,537.402,567.838,499.967,567.838L499.967,567.838z M432.121,398.256
	c0,18.686-15.238,33.891-33.924,33.891h-67.779v0.713H144.969l95.938-95.955L130.193,226.207l3.313-3.33
	c-23.852-10.484-40.615-34.336-40.615-62.115c0-37.5,30.346-67.813,67.846-67.813c27.762,0,51.613,16.697,62.082,40.633l3.313-3.33
	l110.715,110.713l95.938-95.938v185.316h-0.662V398.256L432.121,398.256z M133.506,777.141l-3.313-3.346l110.713-110.713
	l-95.938-95.939h185.449v0.695h67.779c18.686,0,33.924,15.207,33.924,33.924v67.879h0.662v185.352l-95.938-95.939l-110.715,110.68
	l-3.313-3.313c-10.469,23.951-34.32,40.648-62.082,40.648c-37.5,0-67.846-30.346-67.846-67.846
	C92.891,811.461,109.654,787.609,133.506,777.141L133.506,777.141z M601.67,567.838h101.836c3.775,0,7.154,1.061,10.467,2.121
	h143.842l-95.938,95.938l107.797,107.898l-3.313,3.346c23.918,10.469,40.748,34.32,40.748,62.082
	c0,37.5-30.412,67.846-67.912,67.846c-27.762,0-51.613-16.697-62.148-40.648l-3.313,3.313L665.938,761.836l-96.07,95.938V714.031
	c-0.994-3.346-2.055-6.725-2.055-10.5v-101.77C567.813,583.045,582.986,567.838,601.67,567.838L601.67,567.838z"/>
</svg>
