<?xml version="1.0" encoding="utf-8"?>
<!-- Generator: Adobe Illustrator 16.0.0, SVG Export Plug-In . SVG Version: 6.00 Build 0)  -->
<!DOCTYPE svg PUBLIC "-//W3C//DTD SVG 1.1//EN" "http://www.w3.org/Graphics/SVG/1.1/DTD/svg11.dtd">
<svg version="1.1" id="Layer_1" xmlns="http://www.w3.org/2000/svg" xmlns:xlink="http://www.w3.org/1999/xlink" x="0px" y="0px"
	 width="1000px" height="1000px" viewBox="0 0 1000 1000" enable-background="new 0 0 1000 1000" xml:space="preserve">
<path fill-rule="evenodd" clip-rule="evenodd" fill="#020202" d="M910.063,383.717L707.926,553.855h-7.066
	c0,16.156-13.107,29.234-29.178,29.234c-16.071,0-29.178-13.078-29.178-29.234v55.079l-0.229,0.228l0.229-142.784
	c0,0-39.893-38.553-173.673,32.54C372.635,550.037,354.755,612.04,354.755,612.04s-8.277-159.795,83.488-233.225
	c145.876-116.712,205.115-93.176,205.115-93.176l-0.741-81.408c0-0.143-0.113-0.285-0.113-0.456
	c0-16.156,13.106-29.234,29.178-29.234c16.07,0,29.178,13.078,29.178,29.234c0,0.313-0.171,0.542-0.171,0.912L910.063,383.717
	L910.063,383.717z M642.504,154.937v39.294l-0.343-39.607L642.504,154.937L642.504,154.937z M204.818,320.431
	c-16.085,0-29.164,13.079-29.164,29.235V728.98c0,16.07,13.079,29.149,29.164,29.149h554.426c16.1,0,29.149-13.079,29.149-29.149
	V561.834l87.563-86.651V758.13c0,48.326-39.236,87.563-87.563,87.563H175.654c-48.325,0-87.563-39.236-87.563-87.563V320.431
	c0-48.326,39.237-87.477,87.563-87.477h385.1c-19.847,10.429-56.063,34.335-122.511,87.477H204.818L204.818,320.431z"/>
</svg>
