<?xml version="1.0" encoding="utf-8"?>
<!-- Generator: Adobe Illustrator 16.0.0, SVG Export Plug-In . SVG Version: 6.00 Build 0)  -->
<!DOCTYPE svg PUBLIC "-//W3C//DTD SVG 1.1//EN" "http://www.w3.org/Graphics/SVG/1.1/DTD/svg11.dtd">
<svg version="1.1" id="Layer_1" xmlns="http://www.w3.org/2000/svg" xmlns:xlink="http://www.w3.org/1999/xlink" x="0px" y="0px"
	 width="1000px" height="1000px" viewBox="0 0 1000 1000" enable-background="new 0 0 1000 1000" xml:space="preserve">
<path fill-rule="evenodd" clip-rule="evenodd" fill="#020202" d="M853.921,861.106c-32.282,32.281-84.578,32.281-116.859,0
	L659.155,783.2c-17.244-17.243-24.965-40.163-23.78-62.814l-47.724-47.723c-47.185,30.291-103.18,48.019-163.357,48.019
	c-167.38,0-302.963-135.663-302.963-302.962c0-167.394,135.583-303.057,302.963-303.057c167.393,0,303.056,135.663,303.056,303.057
	c0,67.253-22.22,129.261-59.317,179.513l45.248,45.247c22.57-1.13,45.49,6.618,62.734,23.835l77.906,77.933
	C886.202,776.529,886.202,828.825,853.921,861.106L853.921,861.106z M424.294,197.331c-121.675,0-220.376,98.62-220.376,220.389
	c0,121.675,98.701,220.375,220.376,220.375c121.688,0,220.389-98.7,220.389-220.375
	C644.683,295.951,545.981,197.331,424.294,197.331L424.294,197.331z M545.471,445.952
	c-27.588-102.884-115.42-168.725-196.245-147.015c-11.77,3.12-22.489,8.446-32.631,14.688
	c19.086-26.471,45.826-46.768,78.686-55.564c80.812-21.709,165.523,32.228,189.144,120.41
	c15.279,56.91,1.021,113.887-32.497,153.176C554.859,504.342,553.38,475.329,545.471,445.952L545.471,445.952z"/>
</svg>
