<?xml version="1.0" encoding="utf-8"?>
<!-- Generator: Adobe Illustrator 16.0.0, SVG Export Plug-In . SVG Version: 6.00 Build 0)  -->
<!DOCTYPE svg PUBLIC "-//W3C//DTD SVG 1.1//EN" "http://www.w3.org/Graphics/SVG/1.1/DTD/svg11.dtd">
<svg version="1.1" id="Layer_1" xmlns="http://www.w3.org/2000/svg" xmlns:xlink="http://www.w3.org/1999/xlink" x="0px" y="0px"
	 width="1000px" height="1000px" viewBox="0 0 1000 1000" enable-background="new 0 0 1000 1000" xml:space="preserve">
<g id="setting_1_">
	<g>
		<path fill-rule="evenodd" clip-rule="evenodd" fill="#A8A8A8" d="M901.479,392.672h-55.935
			c-6.246-19.592-15.969-37.339-25.271-55.37l41.173-41.168c28.394-28.394,28.394-74.463,0-102.855l-51.393-51.393
			c-28.396-28.394-74.391-28.394-102.786,0l-41.098,41.171c-17.961-9.441-35.847-19.237-55.437-25.626v-55.509
			c0-40.174-32.513-72.687-72.688-72.687h-72.687c-40.143,0-72.687,32.512-72.687,72.687v54.091
			c-20.161,6.247-38.475,16.113-56.967,25.483l-39.605-39.61c-28.396-28.394-74.391-28.394-102.787,0l-51.393,51.393
			c-28.394,28.392-28.394,74.461,0,102.855l38.227,38.188c-10.008,18.884-20.195,37.691-26.76,58.351h-51.465
			c-40.14,0-72.687,32.508-72.687,72.687v72.687c0,40.105,32.546,72.688,72.687,72.688h51.465
			c6.565,20.655,16.752,39.467,26.76,58.347l-38.227,38.188c-28.394,28.396-28.394,74.391,0,102.786l51.393,51.393
			c28.396,28.394,74.391,28.394,102.787,0l39.605-39.609c18.493,9.44,36.806,19.306,56.967,25.483v54.159
			c0,40.105,32.544,72.687,72.687,72.687h72.687c40.176,0,72.688-32.581,72.688-72.687V845.9
			c19.59-6.319,37.476-16.115,55.437-25.557l41.098,41.103c28.396,28.394,74.391,28.394,102.786,0l51.393-51.393
			c28.394-28.396,28.394-74.391,0-102.786l-41.173-41.241c9.303-17.956,19.025-35.703,25.271-55.293h55.935
			c40.179,0,72.687-32.583,72.687-72.688v-72.687C974.166,425.18,941.658,392.672,901.479,392.672z M499.432,644.803
			c-80.282,0-145.375-65.089-145.375-145.371s65.093-145.375,145.375-145.375s145.371,65.093,145.371,145.375
			S579.714,644.803,499.432,644.803z"/>
	</g>
</g>
</svg>
