<?xml version="1.0" encoding="utf-8"?>
<!-- Generator: Adobe Illustrator 16.0.0, SVG Export Plug-In . SVG Version: 6.00 Build 0)  -->
<!DOCTYPE svg PUBLIC "-//W3C//DTD SVG 1.1//EN" "http://www.w3.org/Graphics/SVG/1.1/DTD/svg11.dtd">
<svg version="1.1" id="Layer_1" xmlns="http://www.w3.org/2000/svg" xmlns:xlink="http://www.w3.org/1999/xlink" x="0px" y="0px"
	 width="1000px" height="1000px" viewBox="0 0 1000 1000" enable-background="new 0 0 1000 1000" xml:space="preserve">
<path fill-rule="evenodd" clip-rule="evenodd" fill="#020202" d="M903.699,531.048c0,17.196-13.89,31.026-31.116,31.026
	l-73.758,18.47c-7.037,26.173-17.409,50.891-30.511,73.758l39.123,65.267c12.132,12.161,12.132,31.845,0,43.915l-43.915,43.915
	c-12.191,12.192-31.845,12.192-43.915,0l-64.721-38.789c-23.049,13.435-48.101,23.989-74.546,31.025l-18.258,73.061
	c0,17.105-13.951,31.025-31.057,31.025h-62.173c-17.104,0-30.995-13.92-30.995-31.025l-18.258-73.061
	c-26.446-7.036-51.437-17.591-74.547-31.025l-64.72,38.789c-12.071,12.192-31.724,12.192-43.915,0l-43.916-43.915
	c-12.07-12.07-12.07-31.754,0-43.915l39.185-65.267c-13.162-22.867-23.596-47.585-30.632-73.758l-73.758-18.47
	c-17.166,0-30.995-13.83-30.995-31.026v-62.081c0-17.196,13.829-31.117,30.995-31.117l73.758-18.409
	c7.036-26.143,17.47-50.86,30.632-73.819l-39.185-65.205c-12.07-12.162-12.07-31.829,0-43.915l43.916-43.915
	c12.191-12.162,31.844-12.162,43.915,0l64.72,38.805c23.11-13.451,48.101-24.005,74.547-31.041l18.258-73.03
	c0-17.12,13.891-31.041,30.995-31.041h62.173c17.105,0,31.057,13.921,31.057,31.041l18.258,73.03
	c26.445,7.036,51.497,17.59,74.546,31.041l64.721-38.805c12.07-12.162,31.724-12.162,43.915,0l43.915,43.915
	c12.132,12.086,12.132,31.753,0,43.915l-39.123,65.205c13.102,22.959,23.474,47.677,30.511,73.819l73.758,18.409
	c17.227,0,31.116,13.921,31.116,31.117V531.048L903.699,531.048z M499.971,313.701c-102.934,0-186.337,83.357-186.337,186.291
	c0,102.873,83.403,186.306,186.337,186.306c102.873,0,186.336-83.433,186.336-186.306
	C686.307,397.059,602.844,313.701,499.971,313.701L499.971,313.701z M499.971,593.19c-51.497,0-93.168-41.762-93.168-93.198
	s41.671-93.184,93.168-93.184c51.437,0,93.168,41.747,93.168,93.184S551.407,593.19,499.971,593.19L499.971,593.19z"/>
</svg>
