<?xml version="1.0" encoding="utf-8"?>
<!-- Generator: Adobe Illustrator 16.0.0, SVG Export Plug-In . SVG Version: 6.00 Build 0)  -->
<!DOCTYPE svg PUBLIC "-//W3C//DTD SVG 1.1//EN" "http://www.w3.org/Graphics/SVG/1.1/DTD/svg11.dtd">
<svg version="1.1" id="Layer_1" xmlns="http://www.w3.org/2000/svg" xmlns:xlink="http://www.w3.org/1999/xlink" x="0px" y="0px"
	 width="1000px" height="1000px" viewBox="0 0 1000 1000" enable-background="new 0 0 1000 1000" xml:space="preserve">
<g id="setting">
	<g>
		<path fill-rule="evenodd" clip-rule="evenodd" fill="#A8A8A8" d="M681.905,529.086v-59.423c0-32.846,26.578-59.424,59.423-59.424
			h229.914C935.496,206.787,779.628,53.703,592.772,53.703c-126.246,0-238.012,70.217-308.489,178.268H28.256v534.804h256.028
			c70.477,108.052,182.243,178.269,308.489,178.269c186.855,0,342.724-153.142,378.47-356.536H741.328
			C708.483,588.508,681.905,561.872,681.905,529.086z M590.914,826.199c-103.67,0-192.542-72.886-236.908-178.269H147.101V350.818
			h206.906C398.372,245.377,487.244,172.55,590.914,172.55c83.332,0,156.913,47.584,205.948,120.701h-55.534
			c-98.419,0-178.268,79.791-178.268,178.268v59.423c0,98.42,79.849,178.269,178.268,178.269h53.04
			C745.273,780.182,672.852,826.199,590.914,826.199z"/>
	</g>
</g>
</svg>
