<?xml version="1.0" encoding="utf-8"?>
<!-- Generator: Adobe Illustrator 16.0.0, SVG Export Plug-In . SVG Version: 6.00 Build 0)  -->
<!DOCTYPE svg PUBLIC "-//W3C//DTD SVG 1.1//EN" "http://www.w3.org/Graphics/SVG/1.1/DTD/svg11.dtd">
<svg version="1.1" id="Layer_1" xmlns="http://www.w3.org/2000/svg" xmlns:xlink="http://www.w3.org/1999/xlink" x="0px" y="0px"
	 width="1000px" height="1000px" viewBox="0 0 1000 1000" enable-background="new 0 0 1000 1000" xml:space="preserve">
<path fill-rule="evenodd" clip-rule="evenodd" fill="#020202" d="M714.787,407.935c-36.048,0-68.77-12.975-94.929-33.77L436.654,480
	c0.869,6.563,1.979,13.124,1.979,19.986c0,6.892-1.109,13.364-1.979,20.017l183.204,105.805
	c26.159-20.854,58.881-33.74,94.929-33.74c84.71,0,153.389,68.68,153.389,153.42c0,84.71-68.679,153.389-153.389,153.389
	c-84.74,0-153.419-68.679-153.419-153.389c0-3.806,0.868-7.372,1.108-11.058L373.34,625.269
	c-24.976,17.619-55.24,28.137-88.111,28.137c-84.726,0-153.404-68.679-153.404-153.419c0-84.71,68.679-153.389,153.404-153.389
	c32.871,0,63.136,10.518,88.111,28.137l189.137-109.162c-0.24-3.715-1.108-7.251-1.108-11.057
	c0-84.71,68.679-153.389,153.419-153.389c84.71,0,153.389,68.679,153.389,153.389C868.176,339.256,799.497,407.935,714.787,407.935
	L714.787,407.935z M714.787,806.795c33.89,0,61.397-27.418,61.397-61.308c0-33.92-27.508-61.428-61.397-61.428
	c-33.92,0-61.338,27.508-61.338,61.428C653.449,779.377,680.867,806.795,714.787,806.795L714.787,806.795z M285.229,438.589
	c-33.92,0-61.413,27.508-61.413,61.397c0,33.92,27.493,61.338,61.413,61.338c33.904,0,61.322-27.418,61.322-61.338
	C346.551,466.097,319.133,438.589,285.229,438.589L285.229,438.589z M714.787,193.178c-33.92,0-61.338,27.448-61.338,61.338
	c0,33.92,27.418,61.338,61.338,61.338c33.89,0,61.397-27.418,61.397-61.338C776.185,220.626,748.677,193.178,714.787,193.178
	L714.787,193.178z"/>
</svg>
