<?xml version="1.0" encoding="utf-8"?>
<!-- Generator: Adobe Illustrator 16.0.0, SVG Export Plug-In . SVG Version: 6.00 Build 0)  -->
<!DOCTYPE svg PUBLIC "-//W3C//DTD SVG 1.1//EN" "http://www.w3.org/Graphics/SVG/1.1/DTD/svg11.dtd">
<svg version="1.1" id="Layer_1" xmlns="http://www.w3.org/2000/svg" xmlns:xlink="http://www.w3.org/1999/xlink" x="0px" y="0px"
	 width="1000px" height="1000px" viewBox="0 0 1000 1000" enable-background="new 0 0 1000 1000" xml:space="preserve">
<path fill-rule="evenodd" clip-rule="evenodd" fill="#020202" d="M500.031,870.7c-204.758,0-370.778-165.941-370.778-370.7
	c0-204.758,166.021-370.7,370.778-370.7c204.745,0,370.713,165.942,370.713,370.7C870.744,704.759,704.776,870.7,500.031,870.7
	L500.031,870.7z M500.031,209.026c-160.693,0-290.975,130.281-290.975,290.974c0,160.693,130.281,290.975,290.975,290.975
	c160.68,0,290.961-130.281,290.961-290.975C790.992,339.308,660.711,209.026,500.031,209.026L500.031,209.026z M537.463,634.29
	L537.463,634.29L537.463,634.29L537.463,634.29c-20.649,20.662-54.202,20.662-74.877,0l0,0L312.741,484.511
	c-20.675-20.714-20.675-54.229,0-74.891c20.727-20.739,54.215-20.739,74.955,0l112.335,112.335L612.353,409.62
	c20.688-20.739,54.254-20.739,74.916,0c20.662,20.662,20.662,54.177,0,74.891L537.463,634.29L537.463,634.29z"/>
</svg>
