<?xml version="1.0" encoding="utf-8"?>
<!-- Generator: Adobe Illustrator 16.0.0, SVG Export Plug-In . SVG Version: 6.00 Build 0)  -->
<!DOCTYPE svg PUBLIC "-//W3C//DTD SVG 1.1//EN" "http://www.w3.org/Graphics/SVG/1.1/DTD/svg11.dtd">
<svg version="1.1" id="Layer_1" xmlns="http://www.w3.org/2000/svg" xmlns:xlink="http://www.w3.org/1999/xlink" x="0px" y="0px"
	 width="1000px" height="1000px" viewBox="0 0 1000 1000" enable-background="new 0 0 1000 1000" xml:space="preserve">
<path fill-rule="evenodd" clip-rule="evenodd" fill="#020202" d="M499.994,875.854C292.402,875.854,124.14,707.605,124.14,500
	c0-207.604,168.263-375.854,375.854-375.854c207.618,0,375.867,168.25,375.867,375.854
	C875.861,707.605,707.612,875.854,499.994,875.854L499.994,875.854z M499.994,204.979c-162.928,0-295.008,132.094-295.008,295.021
	s132.08,295.021,295.008,295.021c162.939,0,295.033-132.094,295.033-295.021S662.934,204.979,499.994,204.979L499.994,204.979z
	 M613.904,591.689L499.994,477.74L386.097,591.689c-20.949,20.976-54.969,20.976-75.931,0c-20.949-21.002-20.949-54.956,0-75.932
	l151.875-151.915l0,0c20.949-20.976,54.969-20.976,75.932,0l0,0l0,0l0,0l151.862,151.915c21.028,20.976,20.949,54.93,0,75.932
	C668.859,612.665,634.854,612.665,613.904,591.689L613.904,591.689z"/>
</svg>
