<?xml version="1.0" encoding="utf-8"?>
<!-- Generator: Adobe Illustrator 16.0.0, SVG Export Plug-In . SVG Version: 6.00 Build 0)  -->
<!DOCTYPE svg PUBLIC "-//W3C//DTD SVG 1.1//EN" "http://www.w3.org/Graphics/SVG/1.1/DTD/svg11.dtd">
<svg version="1.1" id="Layer_1" xmlns="http://www.w3.org/2000/svg" xmlns:xlink="http://www.w3.org/1999/xlink" x="0px" y="0px"
	 width="1000px" height="1000px" viewBox="0 0 1000 1000" enable-background="new 0 0 1000 1000" xml:space="preserve">
<path fill-rule="evenodd" clip-rule="evenodd" fill="#020202" d="M810.587,796.259h-22.22L632.86,885.166v-88.907
	c-49.154,0-88.906-39.81-88.906-88.878V588.877c0-49.067,39.752-88.834,88.906-88.834h177.727c49.068,0,88.878,39.767,88.878,88.834
	v118.504C899.465,756.449,859.655,796.259,810.587,796.259L810.587,796.259z M632.86,618.475c-16.404,0-29.684,13.279-29.684,29.684
	c0,16.317,13.279,29.597,29.684,29.597c16.347,0,29.597-13.279,29.597-29.597C662.457,631.754,649.207,618.475,632.86,618.475
	L632.86,618.475z M721.681,618.475c-16.347,0-29.598,13.279-29.598,29.684c0,16.317,13.251,29.597,29.598,29.597
	c16.404,0,29.684-13.279,29.684-29.597C751.364,631.754,738.085,618.475,721.681,618.475L721.681,618.475z M810.587,618.475
	c-16.317,0-29.626,13.279-29.626,29.684c0,16.317,13.309,29.597,29.626,29.597c16.375,0,29.597-13.279,29.597-29.597
	C840.184,631.754,826.962,618.475,810.587,618.475L810.587,618.475z M469.86,263.021c24.563,0,44.481,19.847,44.481,44.409v177.727
	c0,4.499-1.374,8.622-2.589,12.745c1.143,12.657-2.518,25.633-12.209,35.311L394.768,637.945c-17.315,17.388-45.48,17.388-62.883,0
	c-17.315-17.359-17.315-45.48,0-62.811l93.565-93.564v-174.14C425.45,282.868,445.369,263.021,469.86,263.021L469.86,263.021z
	 M469.86,203.726c-155.45,0-281.433,125.982-281.433,281.432c0,155.45,125.982,281.505,281.433,281.505
	c12.209,0,24.114-0.897,35.86-2.459c16.332,19.384,40.519,32.056,67.858,32.056v44.121c-32.909,9.691-67.627,15.102-103.719,15.102
	c-204.518,0-370.339-165.749-370.339-370.324c0-204.502,165.821-370.323,370.339-370.323c199.541,0,361.789,157.951,369.658,355.525
	h-88.936C742.829,321.854,620.333,203.726,469.86,203.726L469.86,203.726z"/>
</svg>
