<?xml version="1.0" encoding="utf-8"?>
<!-- Generator: Adobe Illustrator 16.0.0, SVG Export Plug-In . SVG Version: 6.00 Build 0)  -->
<!DOCTYPE svg PUBLIC "-//W3C//DTD SVG 1.1//EN" "http://www.w3.org/Graphics/SVG/1.1/DTD/svg11.dtd">
<svg version="1.1" id="Layer_1" xmlns="http://www.w3.org/2000/svg" xmlns:xlink="http://www.w3.org/1999/xlink" x="0px" y="0px"
	 width="1000px" height="1000px" viewBox="0 0 1000 1000" enable-background="new 0 0 1000 1000" xml:space="preserve">
<g id="topic">
	<g>
		<path fill-rule="evenodd" clip-rule="evenodd" fill="#A8A8A8" d="M874.255,409.943c34.638,0,62.665-28.09,62.665-62.667v-62.667
			c0-34.638-28.027-62.667-62.665-62.667H748.921V94.649c0-17.318-6.978-32.984-18.36-44.307
			c-11.384-11.321-27.05-18.36-44.308-18.36c0,0,0,0-0.061,0h-62.606c-34.638,0-62.667,28.029-62.667,62.667v127.292H435.584V94.649
			c0-17.318-7.007-32.984-18.36-44.307c-11.352-11.321-27.019-18.36-44.307-18.36H310.25c-34.606,0-62.667,28.029-62.667,62.667
			v127.292H122.251c-34.609,0-62.667,28.029-62.667,62.667v62.667c0,34.577,28.058,62.667,62.667,62.667h125.333v188.001H122.251
			c-34.609,0-62.667,28.029-62.667,62.667v62.668c0,34.576,28.058,62.666,62.667,62.666h125.333V909.32
			c0,34.638,28.06,62.667,62.667,62.667h62.667c34.609,0,62.667-28.029,62.667-62.667V785.945h125.334V909.32
			c0,34.638,28.029,62.667,62.667,62.667h62.667c34.639,0,62.668-28.029,62.668-62.667V785.945h125.334
			c34.638,0,62.665-28.09,62.665-62.666v-62.668c0-34.638-28.027-62.667-62.665-62.667H748.921V409.943H874.255z M560.919,597.944
			H435.584V409.943h125.334V597.944z"/>
	</g>
</g>
</svg>
