<?xml version="1.0" encoding="utf-8"?>
<!-- Generator: Adobe Illustrator 16.0.0, SVG Export Plug-In . SVG Version: 6.00 Build 0)  -->
<!DOCTYPE svg PUBLIC "-//W3C//DTD SVG 1.1//EN" "http://www.w3.org/Graphics/SVG/1.1/DTD/svg11.dtd">
<svg version="1.1" id="Layer_1" xmlns="http://www.w3.org/2000/svg" xmlns:xlink="http://www.w3.org/1999/xlink" x="0px" y="0px"
	 width="1005px" height="998px" viewBox="0 0 1005 998" enable-background="new 0 0 1005 998" xml:space="preserve">
<g>
	<path d="M562.432,165.625c-5,41-23,74-56,99c-5,4-10,7-15,10c-1-13-3-25-6-37c25-20,39-45,43-76s-4-59-23-84c-21-25-46-39-76-43
		c-31-4-59,4-84,23c-25,20-39,45-43,76s4,59,23,84c13,16,27,27,44,34c1,13,2,25,2,37c-28-8-52-25-73-50c-25-32-35-68-30-109
		c5-39,23-72,56-99c32-25,68-35,109-30s74,23,99,56C557.432,88.625,567.432,124.625,562.432,165.625L562.432,165.625
		L562.432,165.625z M792.432,692.625c-3,7-4,14-5,21c-7,39-12,76-19,113c-2,14-6,28-12,42c-6,17-13,34-21,51l1,1l7,72
		c-26,4-271,2-332,6l-6-73c-7-18-19-33-34-44c-43-29-70-67-97-110c-23-37-26-80-45-117c-7-23-18-45-29-65c-5-8-8-23-15-31
		c-5-7-4-29-7-38c-3-15-6-29-10-42c-7-15-17-31-25-46c-5-11,4-25,13-32c25-15,66,4,82,28c9,12,15,28,22,43c12,25,24,61,43,81
		c17,16,35,24,59,23c4,0,8-2,12-6c14-13,22-29,24-46c1-3,1-8,1-13l-25-401c0-7,1-14,4-21c4-11,13-21,33-22s38,1,43,38l39,289h1v2
		l25-1c26,4,48,16,66,36c4,4,6,7,7,10l12,27l23,3l1,1c31,9,60,29,79,56c17,23,30,47,37,72c1,1,2,2,2,2
		C791.432,609.625,797.432,671.625,792.432,692.625L792.432,692.625z"/>
</g>
</svg>
