<?xml version="1.0" encoding="utf-8"?>
<!-- Generator: Adobe Illustrator 16.0.0, SVG Export Plug-In . SVG Version: 6.00 Build 0)  -->
<!DOCTYPE svg PUBLIC "-//W3C//DTD SVG 1.1//EN" "http://www.w3.org/Graphics/SVG/1.1/DTD/svg11.dtd">
<svg version="1.1" id="Layer_1" xmlns="http://www.w3.org/2000/svg" xmlns:xlink="http://www.w3.org/1999/xlink" x="0px" y="0px"
	 width="1000px" height="1000px" viewBox="0 0 1000 1000" enable-background="new 0 0 1000 1000" xml:space="preserve">
<g id="vote">
	<g>
		<path fill-rule="evenodd" clip-rule="evenodd" fill="#A8A8A8" d="M524.852,27.08h-67.277c-37.153,0-67.278,30.088-67.278,67.277
			v807.327c0,37.121,30.125,67.277,67.278,67.277h67.277c37.188,0,67.278-30.156,67.278-67.277V94.357
			C592.13,57.168,562.039,27.08,524.852,27.08z M188.464,430.743h-67.275c-37.155,0-67.277,30.091-67.277,67.277v403.663
			c0,37.121,30.123,67.277,67.277,67.277h67.275c37.155,0,67.277-30.156,67.277-67.277V498.021
			C255.741,460.834,225.619,430.743,188.464,430.743z M861.24,296.188h-67.277c-37.187,0-67.278,30.091-67.278,67.278v538.218
			c0,37.121,30.092,67.277,67.278,67.277h67.277c37.187,0,67.275-30.156,67.275-67.277V363.465
			C928.516,326.279,898.427,296.188,861.24,296.188z"/>
	</g>
</g>
</svg>
