<?xml version="1.0" encoding="utf-8"?>
<!-- Generator: Adobe Illustrator 16.0.0, SVG Export Plug-In . SVG Version: 6.00 Build 0)  -->
<!DOCTYPE svg PUBLIC "-//W3C//DTD SVG 1.1//EN" "http://www.w3.org/Graphics/SVG/1.1/DTD/svg11.dtd">
<svg version="1.1" id="Layer_1" xmlns="http://www.w3.org/2000/svg" xmlns:xlink="http://www.w3.org/1999/xlink" x="0px" y="0px"
	 width="1000px" height="1000px" viewBox="0 0 1000 1000" enable-background="new 0 0 1000 1000" xml:space="preserve">
<path fill-rule="evenodd" clip-rule="evenodd" fill="#020202" d="M507.322,830.674c-77.127-1.727-155.211-25.461-217.836-71.578
	l66.543-66.543c42.689,31.615,95.568,50.641,154.742,50.641c200.816,0,281.674-112.52,281.674-258.381
	c0-184.471-119.328-278.105-265.213-278.105c-139.215,0-260.852,71.486-271.926,252.412l-90.16,90.139
	c-3.195-20.285-5.154-41.455-5.037-64.072c1.842-248.961,162.229-372.158,369.828-367.402
	c259.756,5.922,352.133,190.02,352.133,367.402C882.07,657.113,761.67,836.082,507.322,830.674L507.322,830.674z M402.285,477.072
	c-0.488-4.057-1.469-8.113-1.469-12.17c0-57.449,54.838-109.629,112.404-109.629c57.449,0,109.582,54.885,109.582,112.426
	c0,57.449-49.336,111.074-106.877,111.074c-17.953,0-35.789-5.641-51.9-15.014c-161.482,44.158-235.789,78.619-252.506,258.193
	c1.096,4.01,2.473,8.113,2.473,12.637c0,26.348-21.287,47.75-47.727,47.75c-26.324,0-47.727-21.402-47.727-47.75h-0.631
	C131.199,636.596,233.039,539.277,402.285,477.072L402.285,477.072z"/>
</svg>
