<svg xmlns="http://www.w3.org/2000/svg" width="1000" height="1000" viewBox="0 0 1000 1000"><path fill-rule="evenodd" clip-rule="evenodd" fill="#181212" d="M501.112 809.081c-31.365 0-61.25-5.151-90.202-12.333l35.959-74.905c19.55 4.065 39.659 6.285 60.318 6.285 163.633 0 296.273-132.665 296.273-296.266 0-163.643-132.641-296.274-296.273-296.274-163.813 0-296.452 132.631-296.452 296.274 0 56.245 16.432 108.246 43.539 152.903l-54.035 69.755c-44.284-61.089-71.042-135.791-71.042-217.144 0-205.326 166.403-371.891 371.915-371.891 205.326 0 371.705 166.565 371.705 371.891 0 205.326-166.379 371.705-371.705 371.705zm-118.264-247.916c-32.265-30.995-52.551-74.54-52.551-122.856 0-94.092 76.175-170.267 170.258-170.267 93.911 0 170.266 76.175 170.266 170.267 0 94.082-76.354 170.283-170.266 170.283-23.066 0-45.02-4.617-65.131-12.942-12.357 12.18-145.346 149.599-129.125 335.026-33.948 8.512-77.099 3.862-133.563 0 0-104.781 114.385-308.634 210.112-369.511z"/></svg>