<?xml version="1.0" encoding="utf-8"?>
<!-- Generator: Adobe Illustrator 16.0.0, SVG Export Plug-In . SVG Version: 6.00 Build 0)  -->
<!DOCTYPE svg PUBLIC "-//W3C//DTD SVG 1.1//EN" "http://www.w3.org/Graphics/SVG/1.1/DTD/svg11.dtd">
<svg version="1.1" id="Layer_1" xmlns="http://www.w3.org/2000/svg" xmlns:xlink="http://www.w3.org/1999/xlink" x="0px" y="0px"
	 width="1000px" height="1000px" viewBox="0 0 1000 1000" enable-background="new 0 0 1000 1000" xml:space="preserve">
<path fill-rule="evenodd" clip-rule="evenodd" fill="#020202" d="M898.374,270.67l-47.198,46.977l-139.24-141.733l48.223-50.342
	c21.106-21.023,39.083,3.518,39.083,3.518l98.413,106.002C918.04,255.408,898.374,270.67,898.374,270.67L898.374,270.67z
	 M512.423,656.856l2.632,0.803l-4.321,0.942l-2.41,2.409l-1.606-1.606L309.24,701.063l56.99-182.146l-1.454-1.552l2.853-2.825
	v-0.083v0.083l312.813-312.91l143.645,143.631L512.423,656.856L512.423,656.856z M369.596,522.214l24.624,98.911l106.362,32.131
	L369.596,522.214L369.596,522.214z M205.288,288.272c-15.636,0-28.35,12.713-28.35,28.418v453.758
	c0,15.705,12.714,28.418,28.35,28.418h567.279c15.622,0,28.363-12.713,28.363-28.418V443.384l85.09-90.823v446.306
	c0,46.977-38.113,85.035-85.09,85.035H176.938c-46.977,0-85.104-38.059-85.104-85.035V288.272c0-46.977,38.127-85.035,85.104-85.035
	H602.36l-85.049,85.035H205.288L205.288,288.272z"/>
</svg>
