<?xml version="1.0" encoding="utf-8"?>
<!-- Generator: Adobe Illustrator 16.0.0, SVG Export Plug-In . SVG Version: 6.00 Build 0)  -->
<!DOCTYPE svg PUBLIC "-//W3C//DTD SVG 1.1//EN" "http://www.w3.org/Graphics/SVG/1.1/DTD/svg11.dtd">
<svg version="1.1" id="Layer_1" xmlns="http://www.w3.org/2000/svg" xmlns:xlink="http://www.w3.org/1999/xlink" x="0px" y="0px"
	 width="1000px" height="1000px" viewBox="0 0 1000 1000" enable-background="new 0 0 1000 1000" xml:space="preserve">
<path fill-rule="evenodd" clip-rule="evenodd" fill="#020202" d="M503.52,620.377l6.398,0.393l-11.844,5.094l-4.068,4.131
	l-1.75-1.697L292.22,714.814l90.752-202.076l0.29,2.527l405.611-405.601l112.679,112.772L503.52,620.377L503.52,620.377z
	 M392.476,613.585l90.566,5.539l-99.293-99.345L392.476,613.585L392.476,613.585z M195.939,244.333v546.532h596.422V492.748
	l99.387-99.438v447.343c0,27.424-22.228,49.693-49.6,49.693h-695.81c-27.466,0-49.693-22.27-49.693-49.693V194.63
	c0-27.507,22.228-49.787,49.693-49.787h422.403l-82.884,99.49H195.939L195.939,244.333z"/>
</svg>
